<svg width="18" height="21" viewBox="0 0 18 21" fill="none" xmlns="http://www.w3.org/2000/svg">
<path d="M0 12C0 14.3869 0.948211 16.6761 2.63604 18.364C4.32387 20.0518 6.61305 21 9 21C9 16 4.97 12 0 12ZM9 4.5C9.66304 4.5 10.2989 4.76339 10.7678 5.23223C11.2366 5.70107 11.5 6.33696 11.5 7C11.5 7.66304 11.2366 8.29893 10.7678 8.76777C10.2989 9.23661 9.66304 9.5 9 9.5C8.33696 9.5 7.70107 9.23661 7.23223 8.76777C6.76339 8.29893 6.5 7.66304 6.5 7C6.5 6.33696 6.76339 5.70107 7.23223 5.23223C7.70107 4.76339 8.33696 4.5 9 4.5ZM2.6 9.25C2.6 9.91304 2.86339 10.5489 3.33223 11.0178C3.80107 11.4866 4.43696 11.75 5.1 11.75C5.63 11.75 6.12 11.58 6.5 11.31C6.5 11.37 6.5 11.43 6.5 11.5C6.5 12.163 6.76339 12.7989 7.23223 13.2678C7.70107 13.7366 8.33696 14 9 14C9.66304 14 10.2989 13.7366 10.7678 13.2678C11.2366 12.7989 11.5 12.163 11.5 11.5C11.5 11.43 11.5 11.37 11.5 11.31C11.88 11.58 12.37 11.75 12.9 11.75C14.28 11.75 15.4 10.63 15.4 9.25C15.4 8.25 14.81 7.4 13.97 7C14.81 6.6 15.4 5.74 15.4 4.75C15.4 3.37 14.28 2.25 12.9 2.25C12.37 2.25 11.88 2.41 11.5 2.69C11.5 2.63 11.5 2.56 11.5 2.5C11.5 1.83696 11.2366 1.20107 10.7678 0.732233C10.2989 0.263392 9.66304 0 9 0C8.33696 0 7.70107 0.263392 7.23223 0.732233C6.76339 1.20107 6.5 1.83696 6.5 2.5C6.5 2.56 6.5 2.63 6.5 2.69C6.12 2.41 5.63 2.25 5.1 2.25C4.43696 2.25 3.80107 2.51339 3.33223 2.98223C2.86339 3.45107 2.6 4.08696 2.6 4.75C2.6 5.74 3.19 6.6 4.03 7C3.19 7.4 2.6 8.25 2.6 9.25ZM9 21C11.3869 21 13.6761 20.0518 15.364 18.364C17.0518 16.6761 18 14.3869 18 12C13 12 9 16 9 21Z" fill="#E23E8F"/>
</svg>
