<svg width="15" height="18" viewBox="0 0 15 18" fill="none" xmlns="http://www.w3.org/2000/svg">
<path d="M12.8033 2.26536C9.87438 -0.755121 5.12562 -0.755121 2.19669 2.26536C-0.732231 5.28585 -0.732231 10.183 2.19669 13.2035L6.38671 17.5244C6.68194 17.8289 7.0824 18 7.49998 18C7.91756 18 8.31803 17.8289 8.61329 17.5244L12.8033 13.2035C15.7322 10.183 15.7322 5.28585 12.8033 2.26536ZM7.49998 10.5469C5.99374 10.5469 4.77271 9.28768 4.77271 7.73438C4.77271 6.18107 5.99374 4.92188 7.49998 4.92188C9.00622 4.92188 10.2273 6.18107 10.2273 7.73438C10.2273 9.28768 9.00622 10.5469 7.49998 10.5469Z" fill="#5C5269"/>
</svg>
