<svg width="255" height="76" viewBox="0 0 255 76" fill="none" xmlns="http://www.w3.org/2000/svg">
<path d="M8.66856 61.88H4.20421V72.4348H8.66856C9.52595 72.4348 10.2059 72.3313 10.7086 72.1096C11.2112 71.8878 11.5955 71.6217 11.8468 71.3113C12.0981 71.0009 12.2755 70.6609 12.3494 70.3209C12.4233 69.9809 12.4529 69.6852 12.4529 69.4339C12.4529 68.7391 12.2459 68.1626 11.8468 67.6896C11.4477 67.2313 10.9007 66.9504 10.2207 66.8617V66.8322C10.5016 66.773 10.7529 66.6696 10.9746 66.5217C11.1964 66.3739 11.3886 66.1965 11.5512 65.9748C11.7138 65.7678 11.832 65.5313 11.9207 65.2652C12.0094 65.0139 12.0538 64.7478 12.0538 64.467C12.0538 63.9791 11.9651 63.5652 11.7729 63.2252C11.5807 62.9 11.3442 62.6339 11.0338 62.427C10.7233 62.2348 10.3538 62.087 9.95464 61.9983C9.54073 61.9243 9.11204 61.88 8.66856 61.88ZM8.66856 66.507H5.20943V62.7374H8.66856C10.2503 62.7374 11.0486 63.4026 11.0486 64.7183C11.0486 64.9696 11.0042 65.1913 10.9007 65.413C10.7973 65.6348 10.6494 65.8122 10.4573 65.9748C10.2651 66.1374 10.0138 66.2704 9.71812 66.3591C9.40769 66.4626 9.06769 66.507 8.66856 66.507ZM8.66856 71.5774H5.20943V67.3643H8.66856C9.5703 67.3643 10.2503 67.527 10.7381 67.867C11.2112 68.207 11.4477 68.7243 11.4477 69.4043C11.4477 69.833 11.3738 70.1878 11.2259 70.4687C11.0781 70.7496 10.8712 70.9713 10.6199 71.1339C10.3686 71.2965 10.0729 71.4148 9.73291 71.4739C9.39291 71.5478 9.03812 71.5774 8.66856 71.5774ZM23.6247 72.6417C24.2456 72.6417 24.8074 72.5383 25.3247 72.3461C25.8274 72.1539 26.2708 71.873 26.6404 71.5035C27.01 71.1339 27.3204 70.6904 27.5569 70.173C27.7934 69.6557 27.9413 69.0643 28.0152 68.4139H27.01C26.9656 68.887 26.8474 69.3304 26.67 69.7296C26.4926 70.1435 26.2561 70.4983 25.9752 70.8087C25.6943 71.1191 25.3543 71.3557 24.9552 71.533C24.5561 71.7104 24.1126 71.7991 23.6247 71.7991C22.93 71.7991 22.3239 71.6661 21.8213 71.4C21.3187 71.1339 20.9047 70.7791 20.5943 70.3357C20.2691 69.907 20.0326 69.4043 19.8847 68.8574C19.7221 68.3104 19.6482 67.7339 19.6482 67.1574C19.6482 66.5809 19.7221 66.0191 19.8847 65.4574C20.0326 64.9104 20.2691 64.4078 20.5943 63.9643C20.9047 63.5357 21.3187 63.1809 21.8213 62.9148C22.3239 62.6487 22.93 62.5157 23.6247 62.5157C24.0091 62.5157 24.3787 62.5748 24.7334 62.6783C25.0734 62.7965 25.3987 62.9591 25.6943 63.1809C25.9752 63.4026 26.2265 63.6687 26.4334 63.9791C26.6256 64.3043 26.7734 64.6739 26.8621 65.073H27.8674C27.7934 64.5261 27.6308 64.0383 27.3795 63.6096C27.1134 63.1809 26.7882 62.8261 26.4039 62.5304C26.0047 62.2496 25.5761 62.0278 25.103 61.88C24.6152 61.7322 24.1274 61.6583 23.6247 61.6583C22.7969 61.6583 22.0726 61.8061 21.4517 62.1017C20.8161 62.4122 20.2987 62.8113 19.8847 63.3139C19.4708 63.8313 19.1604 64.4078 18.9534 65.073C18.7465 65.7383 18.643 66.433 18.643 67.1574C18.643 67.8817 18.7465 68.5765 18.9534 69.2417C19.1604 69.907 19.4708 70.4835 19.8847 70.9861C20.2987 71.4887 20.8161 71.8878 21.4517 72.1835C22.0726 72.4939 22.7969 72.6417 23.6247 72.6417ZM41.9234 62.7374V61.88H34.6356V72.4348H41.9973V71.5774H35.6408V67.4087H41.5243V66.5513H35.6408V62.7374H41.9234ZM57.4096 72.5235C57.587 72.5235 57.7939 72.5087 58.0157 72.4791C58.2374 72.4496 58.4592 72.3461 58.6809 72.1835C58.9026 72.0209 59.1096 71.74 59.3313 71.3704C59.5383 71.0009 59.7305 70.4835 59.8931 69.7887C60.0557 69.1087 60.1887 68.2365 60.2922 67.187C60.3957 66.1374 60.44 64.8513 60.44 63.3139V62.7374H64.9487V72.4348H65.9539V61.88H59.4644V63.373C59.4644 64.7478 59.42 65.9157 59.3461 66.8617C59.2722 67.8078 59.1687 68.5913 59.0505 69.1974C58.9174 69.8183 58.7844 70.2913 58.6218 70.6165C58.4592 70.9565 58.2965 71.193 58.1339 71.3409C57.9713 71.5035 57.8087 71.5922 57.6609 71.607C57.5131 71.6365 57.38 71.6513 57.2765 71.6513C57.2026 71.6513 57.0844 71.6365 56.9218 71.6217C56.7592 71.607 56.6261 71.5922 56.5522 71.5478V72.4052C56.5818 72.42 56.6261 72.42 56.7 72.4496C56.7739 72.4643 56.8478 72.4643 56.9365 72.4791C57.0252 72.4939 57.1139 72.4939 57.2026 72.5087C57.2765 72.5235 57.3505 72.5235 57.4096 72.5235ZM74.1413 72.553C74.3926 72.553 74.6439 72.5383 74.8657 72.4939C75.0874 72.4496 75.2943 72.3461 75.5161 72.1983C75.723 72.0504 75.93 71.8435 76.137 71.5626C76.3439 71.2965 76.5509 70.9417 76.7726 70.4835L80.9265 61.88H79.8622L76.5213 68.887L73.0917 61.88H72.0126L75.93 69.9513L75.797 70.2322C75.5604 70.7348 75.3239 71.1043 75.0726 71.3409C74.8213 71.5774 74.4961 71.6957 74.1265 71.6957C73.89 71.6957 73.683 71.6809 73.5057 71.6365C73.3283 71.607 73.1804 71.5626 73.0474 71.5183V72.4052C73.1509 72.4496 73.3135 72.4791 73.5057 72.5087C73.6978 72.5383 73.9048 72.553 74.1413 72.553ZM93.1169 67.6304V72.4348H94.1221V61.88H93.1169V66.773C92.9838 66.8026 92.7916 66.847 92.5551 66.8913C92.3038 66.9357 92.0377 66.98 91.7273 67.0243C91.4169 67.0687 91.1064 67.113 90.7664 67.1426C90.4264 67.187 90.0864 67.2017 89.776 67.2017C89.2438 67.2017 88.8299 67.1278 88.5343 66.9652C88.2238 66.8174 88.0021 66.6252 87.8395 66.4035C87.6769 66.1817 87.5882 65.9452 87.5438 65.6939C87.4995 65.4426 87.4847 65.2061 87.4847 64.9843V61.88H86.4795V65.0435C86.4795 65.3983 86.509 65.753 86.5829 66.1078C86.6569 66.4774 86.8047 66.8026 87.0412 67.0835C87.2777 67.3791 87.6177 67.6157 88.076 67.793C88.5195 67.9852 89.1256 68.0739 89.8795 68.0739C90.116 68.0739 90.3969 68.0591 90.7073 68.0148C91.0177 67.9852 91.3282 67.9409 91.6386 67.8965L92.496 67.7635C92.7621 67.7191 92.969 67.6748 93.1169 67.6304ZM102.336 71.5774V61.88H101.331V72.4348H114.339V61.88H113.334V71.5774H108.338V61.88H107.332V71.5774H102.336ZM128.843 62.7374V61.88H121.556V72.4348H128.917V71.5774H122.561V67.4087H128.444V66.5513H122.561V62.7374H128.843ZM142.688 62.7374V61.88H135.4V72.4348H142.762V71.5774H136.405V67.4087H142.289V66.5513H136.405V62.7374H142.688ZM158.484 71.5774H157.376V75.2435H158.381V72.4348H166.836V75.2435H167.842V71.5774H166.585V61.88H160.051V63.2696C160.051 63.8757 160.036 64.5113 160.022 65.1913C159.992 65.8713 159.933 66.5661 159.83 67.2904C159.726 68.0148 159.563 68.7243 159.356 69.4487C159.15 70.173 158.854 70.8826 158.484 71.5774ZM161.056 62.7374H165.58V71.5774H159.549C159.918 70.8826 160.214 70.1583 160.421 69.4043C160.613 68.6504 160.761 67.9113 160.864 67.1722C160.968 66.433 161.027 65.7087 161.042 65.0139C161.056 64.3191 161.056 63.6835 161.056 63.0922V62.7374ZM173.837 72.5235C174.014 72.5235 174.221 72.5087 174.443 72.4791C174.665 72.4496 174.887 72.3461 175.108 72.1835C175.33 72.0209 175.537 71.74 175.759 71.3704C175.966 71.0009 176.158 70.4835 176.321 69.7887C176.483 69.1087 176.616 68.2365 176.72 67.187C176.823 66.1374 176.867 64.8513 176.867 63.3139V62.7374H181.376V72.4348H182.381V61.88H175.892V63.373C175.892 64.7478 175.847 65.9157 175.774 66.8617C175.7 67.8078 175.596 68.5913 175.478 69.1974C175.345 69.8183 175.212 70.2913 175.049 70.6165C174.887 70.9565 174.724 71.193 174.561 71.3409C174.399 71.5035 174.236 71.5922 174.088 71.607C173.941 71.6365 173.807 71.6513 173.704 71.6513C173.63 71.6513 173.512 71.6365 173.349 71.6217C173.187 71.607 173.054 71.5922 172.98 71.5478V72.4052C173.009 72.42 173.054 72.42 173.127 72.4496C173.201 72.4643 173.275 72.4643 173.364 72.4791C173.453 72.4939 173.541 72.4939 173.63 72.5087C173.704 72.5235 173.778 72.5235 173.837 72.5235ZM192.195 67.8522L188.588 72.4348H189.889L193.407 67.9113H195.772V72.4348H196.777V61.88H192.357C191.87 61.88 191.426 61.9539 191.042 62.087C190.643 62.2348 190.317 62.4417 190.037 62.693C189.756 62.9591 189.534 63.2843 189.386 63.6539C189.238 64.0235 189.164 64.4522 189.164 64.9252C189.164 65.3835 189.238 65.7974 189.401 66.1374C189.549 66.4922 189.756 66.7878 190.037 67.0391C190.303 67.2904 190.628 67.4826 190.997 67.6157C191.367 67.7487 191.766 67.8374 192.195 67.8522ZM192.579 62.7374H195.772V67.0539H192.579C191.84 67.0539 191.249 66.8617 190.82 66.4922C190.391 66.1226 190.17 65.6052 190.17 64.9252C190.17 64.2452 190.391 63.713 190.82 63.3139C191.249 62.9296 191.84 62.7374 192.579 62.7374ZM217.646 61.88H213.182V72.4348H217.646C218.504 72.4348 219.184 72.3313 219.686 72.1096C220.189 71.8878 220.573 71.6217 220.824 71.3113C221.076 71.0009 221.253 70.6609 221.327 70.3209C221.401 69.9809 221.43 69.6852 221.43 69.4339C221.43 68.7391 221.224 68.1626 220.824 67.6896C220.425 67.2313 219.878 66.9504 219.198 66.8617V66.8322C219.479 66.773 219.73 66.6696 219.952 66.5217C220.174 66.3739 220.366 66.1965 220.529 65.9748C220.691 65.7678 220.81 65.5313 220.898 65.2652C220.987 65.0139 221.031 64.7478 221.031 64.467C221.031 63.9791 220.943 63.5652 220.75 63.2252C220.558 62.9 220.322 62.6339 220.011 62.427C219.701 62.2348 219.331 62.087 218.932 61.9983C218.518 61.9243 218.09 61.88 217.646 61.88ZM217.646 66.507H214.187V62.7374H217.646C219.228 62.7374 220.026 63.4026 220.026 64.7183C220.026 64.9696 219.982 65.1913 219.878 65.413C219.775 65.6348 219.627 65.8122 219.435 65.9748C219.243 66.1374 218.991 66.2704 218.696 66.3591C218.385 66.4626 218.045 66.507 217.646 66.507ZM217.646 71.5774H214.187V67.3643H217.646C218.548 67.3643 219.228 67.527 219.716 67.867C220.189 68.207 220.425 68.7243 220.425 69.4043C220.425 69.833 220.351 70.1878 220.204 70.4687C220.056 70.7496 219.849 70.9713 219.597 71.1339C219.346 71.2965 219.05 71.4148 218.71 71.4739C218.37 71.5478 218.016 71.5774 217.646 71.5774ZM236.475 72.4348L232.336 61.88H231.213L226.97 72.4348H228.034L229.306 69.153H234.11L235.396 72.4348H236.475ZM229.616 68.2957L231.73 62.8852L233.77 68.2957H229.616ZM246.995 72.6417C247.616 72.6417 248.178 72.5383 248.695 72.3461C249.198 72.1539 249.641 71.873 250.011 71.5035C250.38 71.1339 250.691 70.6904 250.927 70.173C251.164 69.6557 251.312 69.0643 251.386 68.4139H250.38C250.336 68.887 250.218 69.3304 250.04 69.7296C249.863 70.1435 249.626 70.4983 249.346 70.8087C249.065 71.1191 248.725 71.3557 248.326 71.533C247.926 71.7104 247.483 71.7991 246.995 71.7991C246.3 71.7991 245.694 71.6661 245.192 71.4C244.689 71.1339 244.275 70.7791 243.965 70.3357C243.64 69.907 243.403 69.4043 243.255 68.8574C243.093 68.3104 243.019 67.7339 243.019 67.1574C243.019 66.5809 243.093 66.0191 243.255 65.4574C243.403 64.9104 243.64 64.4078 243.965 63.9643C244.275 63.5357 244.689 63.1809 245.192 62.9148C245.694 62.6487 246.3 62.5157 246.995 62.5157C247.38 62.5157 247.749 62.5748 248.104 62.6783C248.444 62.7965 248.769 62.9591 249.065 63.1809C249.346 63.4026 249.597 63.6687 249.804 63.9791C249.996 64.3043 250.144 64.6739 250.233 65.073H251.238C251.164 64.5261 251.001 64.0383 250.75 63.6096C250.484 63.1809 250.159 62.8261 249.774 62.5304C249.375 62.2496 248.946 62.0278 248.473 61.88C247.986 61.7322 247.498 61.6583 246.995 61.6583C246.167 61.6583 245.443 61.8061 244.822 62.1017C244.186 62.4122 243.669 62.8113 243.255 63.3139C242.841 63.8313 242.531 64.4078 242.324 65.073C242.117 65.7383 242.013 66.433 242.013 67.1574C242.013 67.8817 242.117 68.5765 242.324 69.2417C242.531 69.907 242.841 70.4835 243.255 70.9861C243.669 71.4887 244.186 71.8878 244.822 72.1835C245.443 72.4939 246.167 72.6417 246.995 72.6417Z" fill="#E23E8F"/>
<g clip-path="url(#clip0_305_6)">
<path d="M7.5633 13.8425C7.3746 14.6265 7.2063 15.3749 7.0584 16.0825C6.9105 16.7902 6.7575 17.4775 6.6096 18.1495C6.2373 20.0535 5.865 21.9524 5.4876 23.8564C5.1153 25.7554 4.7787 27.6594 4.4829 29.5583C4.2942 30.6376 4.1514 31.7321 4.0596 32.8318C3.9678 33.9314 3.8811 35.0209 3.8097 36.1002C3.7332 36.6245 3.6516 37.154 3.5547 37.6936C3.4629 38.2384 3.3609 38.7678 3.2487 39.2871C3.1365 39.6638 2.8764 39.8878 2.4633 39.9591C2.1675 40.0355 1.9431 40.0711 1.7901 40.0711C0.969 39.9947 0.4641 39.8675 0.2805 39.6791C0.0918 39.4958 0 39.0631 0 38.3962C0 37.1285 0.1122 35.8762 0.3366 34.6492C1.0812 30.6579 1.8207 26.687 2.55 22.7364C3.2742 18.7858 3.9576 14.7945 4.5951 10.7676C4.7787 9.80032 4.9266 8.83813 5.0388 7.89121C5.151 6.9392 5.3193 5.97701 5.5437 5.00973C5.6559 4.41409 5.7885 3.82863 5.9364 3.24826C6.0894 2.67299 6.3087 2.1028 6.6096 1.5428C6.7218 1.35443 6.8697 1.26279 7.0584 1.26279C7.1349 1.26279 7.191 1.28316 7.2267 1.31879C7.5633 1.5428 7.905 1.73625 8.262 1.90425C8.619 2.07226 8.8689 2.36244 9.0168 2.77481C9.4656 3.14645 9.7665 3.5639 9.9144 4.03227C10.0623 4.49555 10.1949 4.98937 10.3071 5.51374C10.8324 7.97267 11.2659 10.452 11.6229 12.9516C11.9799 15.4462 12.2859 17.9458 12.546 20.4455C12.699 21.5248 12.8265 22.5888 12.9387 23.6324C13.0509 24.6761 13.1835 25.735 13.3314 26.8194L13.668 29.5023C13.668 29.5787 13.7241 29.6143 13.8363 29.6143C13.9842 29.6143 14.0607 29.5787 14.0607 29.5023C14.1372 29.3139 14.2086 29.1205 14.2851 28.9168C14.3616 28.7132 14.433 28.5146 14.5095 28.3263C15.4428 25.5721 16.3863 22.8382 17.3349 20.1349C18.2886 17.4316 19.2882 14.7233 20.3337 11.9996C20.859 10.6963 21.3996 9.39813 21.9606 8.11521C22.5216 6.8272 23.1336 5.56974 23.8068 4.33773C23.9955 4.00173 24.1434 3.66572 24.2556 3.33481C24.3678 2.99881 24.4596 2.64244 24.5361 2.2708C24.5718 1.85844 24.6942 1.50716 24.8982 1.20679C25.1073 0.911519 25.3215 0.611153 25.5459 0.310787C25.6581 0.127513 25.806 0.0307846 25.9947 0.0307846C26.0661 0.0307846 26.1783 0.0715122 26.3262 0.142785C26.928 0.519516 27.5043 0.814791 28.0653 1.03879C28.4733 1.22716 28.8966 1.41043 29.325 1.5988C29.7534 1.78716 30.2124 1.8788 30.6969 1.8788C30.8091 1.8788 30.9417 1.91444 31.0896 1.9908C32.0586 2.29117 32.7063 2.65262 33.0225 3.08026C33.3387 3.5079 33.5172 4.21045 33.5529 5.17773C33.6294 6.33338 33.609 7.46357 33.4968 8.56322C33.3846 9.66286 33.2571 10.7676 33.1041 11.8876C32.9205 13.3029 32.7216 14.6927 32.5176 16.052C32.3136 17.4164 32.1147 18.8011 31.9311 20.2215C31.5588 23.0164 31.212 25.791 30.8958 28.5503C30.5745 31.3096 30.2685 34.0892 29.9676 36.8842C29.9319 37.2202 29.9115 37.5562 29.9115 37.8922C29.9115 38.2282 29.8962 38.5438 29.8554 38.8391C29.784 39.6231 29.6055 40.1729 29.325 40.4886C29.0445 40.8093 28.5294 41.0587 27.7848 41.2471C26.6271 41.5831 25.4694 41.7511 24.3117 41.7511C23.8629 41.7511 23.4039 41.7206 22.9398 41.6646C22.4706 41.6086 22.0167 41.5424 21.5679 41.4711C21.0834 41.3947 20.7723 41.2726 20.6448 41.1046C20.5122 40.9366 20.4255 40.6311 20.3898 40.1831C20.3898 39.9235 20.4 39.6791 20.4204 39.4551C20.4357 39.2311 20.4459 39.0071 20.4459 38.7831C20.6346 36.1765 20.8641 33.5649 21.1446 30.9583C21.4251 28.3466 21.7362 25.7554 22.0728 23.1844C22.2564 21.7691 22.4451 20.3488 22.6338 18.9335C22.8174 17.5182 23.0061 16.1029 23.1897 14.6825C23.2305 14.3109 23.2662 13.9494 23.3019 13.5931C23.3427 13.2418 23.3784 12.8549 23.4141 12.4476C23.4141 12.3356 23.3784 12.2796 23.3019 12.2796C23.154 12.2796 23.0775 12.3 23.0775 12.3356C23.0061 12.524 22.9194 12.6971 22.8276 12.8651C22.7358 13.0331 22.6491 13.2113 22.5777 13.3996C21.267 16.7138 19.9971 20.0433 18.768 23.3779C17.5338 26.7175 16.3761 30.0979 15.2949 33.5292C15.2184 33.6412 15.1725 33.7634 15.1521 33.8907C15.1317 34.0231 15.0858 34.1605 15.0144 34.3132C14.79 34.9089 14.5911 35.2805 14.4228 35.4282C14.2545 35.5809 13.7802 35.6929 12.9948 35.7642C12.2094 35.7642 11.679 35.6725 11.3985 35.4842C11.118 35.3009 10.8834 34.8325 10.6998 34.0892C10.4754 33.2289 10.2969 32.3481 10.1643 31.4318C10.0368 30.5205 9.9144 29.6143 9.8022 28.7183C9.5064 26.4834 9.2157 24.2637 8.9352 22.0644C8.6547 19.8651 8.364 17.6455 8.0682 15.4105C8.0274 15.1865 8.0019 14.9473 7.9815 14.6825C7.9611 14.4229 7.8234 14.1429 7.5633 13.8425Z" fill="#E23E8F"/>
<path d="M35.2921 33.585C35.3278 33.025 35.3737 32.4752 35.4298 31.9355C35.4859 31.3959 35.5726 30.8461 35.6848 30.2861C35.9806 28.4584 36.3172 26.6613 36.6895 24.8897C37.0669 23.118 37.4392 21.3362 37.8115 19.5492C37.8472 19.3609 37.9339 19.0554 38.0665 18.6278C38.194 18.1951 38.3521 17.7572 38.5408 17.3143C38.7295 16.8663 38.9335 16.4743 39.1579 16.1383C39.3823 15.8023 39.6067 15.6343 39.8311 15.6343C39.9025 15.6343 40.0555 15.6903 40.2748 15.8023C40.8001 16.1027 41.3305 16.3776 41.8711 16.6423C42.4168 16.902 42.9829 17.1056 43.5847 17.2583C44.6302 17.518 45.3442 18.1238 45.7369 19.0758C46.1296 20.0227 46.3642 20.9849 46.4407 21.9522C46.4764 22.7362 46.4407 23.51 46.3285 24.2737C46.2163 25.0373 46.0837 25.7908 45.9358 26.5391C45.7471 27.5828 45.5686 28.6162 45.4003 29.6446C45.2371 30.6679 45.0586 31.7013 44.8699 32.745C44.7985 32.9334 44.7424 33.137 44.7016 33.361C44.6659 33.585 44.7424 33.809 44.926 34.033C45.1504 33.9566 45.2983 33.8192 45.3748 33.6155C45.4513 33.4068 45.5227 33.2134 45.5992 33.025C46.1194 32.0577 46.5886 31.0802 47.0017 30.0875C47.4097 29.0999 47.8228 28.1224 48.2308 27.1551C48.5674 26.3355 48.9142 25.5209 49.2661 24.7217C49.6231 23.9224 49.9852 23.1078 50.3626 22.2882C50.6227 21.7689 50.9287 21.2191 51.2857 20.6387C51.6376 20.0634 52.0609 19.5849 52.5454 19.2132C52.7341 19.1012 52.9024 19.0452 53.0503 19.0452C53.1625 19.0452 53.2543 19.0656 53.3308 19.1012C53.5909 19.2132 53.8408 19.3252 54.0856 19.4372C54.3304 19.5492 54.6007 19.6409 54.8965 19.7172C55.2331 19.7529 55.4422 19.9769 55.5136 20.3893C55.5901 20.5725 55.6156 20.7609 55.6003 20.9493C55.5799 21.1325 55.5544 21.3209 55.5136 21.5042C55.3657 22.4002 55.2178 23.2962 55.0648 24.1922C54.9169 25.0831 54.7843 25.9995 54.6721 26.9311C54.5599 27.8628 54.4885 28.7842 54.4477 29.7006C54.412 30.6119 54.5446 31.5333 54.8404 32.465C54.9169 32.6534 54.9832 32.8315 55.0393 32.9995C55.0954 33.1675 55.1617 33.3406 55.2331 33.529C55.3096 33.6766 55.4422 33.753 55.6258 33.753C55.7023 33.753 55.8145 33.7174 55.9624 33.641C56.3755 33.3406 56.7733 32.9792 57.166 32.5515C57.5587 32.1239 57.931 31.6555 58.288 31.1515C58.6399 30.6475 58.9714 30.1384 59.2672 29.6141C59.5681 29.0948 59.8282 28.6264 60.0526 28.214C60.3535 27.6184 60.6697 27.0228 61.0063 26.4271C61.3429 25.8315 61.6591 25.2358 61.9549 24.6351C62.1079 24.3398 62.2558 24.07 62.4037 23.8256C62.5567 23.5864 62.725 23.3318 62.9086 23.0722C63.0208 22.8482 63.1891 22.7362 63.4135 22.7362C63.5614 22.7362 63.6736 22.7565 63.7501 22.7922C63.9337 22.8685 64.1224 22.95 64.3111 23.0416C64.4947 23.1384 64.6834 23.2198 64.867 23.2962C64.9435 23.4795 64.9435 23.6475 64.867 23.8002C64.7956 23.9478 64.7191 24.0955 64.6477 24.2482C63.8266 26.0351 62.8882 27.761 61.8427 29.4206C60.7972 31.0802 59.6242 32.633 58.3135 34.089C58.0177 34.425 57.6454 34.6745 57.1966 34.8425C56.7478 35.0105 56.299 35.097 55.8502 35.097C54.5446 35.097 53.5654 34.6592 52.9075 33.7785C52.2547 32.9028 51.8926 31.8693 51.8161 30.6781C51.7039 29.2577 51.76 27.8628 51.9844 26.4831C52.0252 26.1828 52.0507 25.8773 52.0711 25.5617C52.0864 25.246 52.0966 24.9151 52.0966 24.5791C51.9487 24.5435 51.8161 24.6198 51.7039 24.8031C51.556 25.1035 51.4132 25.4191 51.2857 25.7551C51.1531 26.0911 51.0154 26.4068 50.8624 26.7071C50.5666 27.4504 50.2861 28.1682 50.026 28.8606C49.7608 29.5479 49.4854 30.2657 49.1845 31.0141C48.6235 32.465 48.0064 33.8854 47.3332 35.2599C46.6651 36.6396 45.8593 37.9632 44.926 39.2309C44.5537 39.7196 44.059 40.025 43.4419 40.1574C42.8248 40.2847 42.2383 40.3509 41.6773 40.3509C40.5961 40.3509 39.5863 40.2185 38.653 39.9589C37.7197 39.6992 36.97 39.0476 36.4141 38.0039C36.001 37.3319 35.695 36.6345 35.4859 35.9065C35.2819 35.1785 35.2156 34.4046 35.2921 33.585ZM52.0966 24.4722C52.1323 24.4315 52.1527 24.406 52.1527 24.3857C52.1527 24.3653 52.1323 24.3958 52.0966 24.4722Z" fill="#E23E8F"/>
<path d="M70.9206 23.3522C71.145 23.2402 71.2827 23.118 71.3388 22.9856C71.3949 22.8584 71.4612 22.7362 71.5377 22.6242C71.7621 22.1049 72.0579 21.4023 72.4302 20.5267C72.8076 19.6511 73.2462 18.8009 73.7511 17.9812C74.2509 17.1616 74.8221 16.4539 75.4596 15.8583C76.092 15.2627 76.7652 14.9623 77.4741 14.9623C77.9229 14.9623 78.3513 15.1099 78.7644 15.4103C79.0602 15.6343 79.3968 15.8023 79.7691 15.9143C80.5188 16.1739 81.0288 16.7085 81.3093 17.5078C81.5898 18.3071 81.7683 19.0656 81.8448 19.7732C81.8805 20.2212 81.9111 20.6743 81.9264 21.1427C81.9468 21.6111 81.9366 22.0845 81.9009 22.5682C81.8601 22.7922 81.8448 23.0264 81.8448 23.2656C81.8448 23.51 81.8448 23.7442 81.8448 23.9682C81.8448 24.2278 81.9366 24.3602 82.1253 24.3602C82.2375 24.3602 82.3089 24.3398 82.3497 24.3042C82.4619 24.2278 82.5639 24.1616 82.6557 24.1056C82.7475 24.0496 82.8546 23.9835 82.9617 23.9122C83.2269 23.7595 83.4666 23.6322 83.691 23.5202C83.9154 23.4082 84.1602 23.2758 84.4203 23.1282C84.9456 22.7922 85.4301 22.6242 85.8789 22.6242C86.3277 22.6242 86.7357 22.8125 87.108 23.1842C87.2202 23.2962 87.3732 23.3522 87.5568 23.3522C87.7455 23.3522 87.873 23.4438 87.9495 23.6322C87.873 23.8562 87.7557 24.0038 87.5874 24.0802C87.4191 24.1515 87.2406 24.2278 87.0519 24.3042C86.0829 24.7115 85.17 25.2053 84.3081 25.7857C83.4513 26.3609 82.5894 26.9668 81.7326 27.6031C81.4317 27.7864 81.2073 28.0206 81.0594 28.3006C80.9115 28.5806 80.7789 28.886 80.6667 29.222C80.4423 29.9297 80.1516 30.6933 79.7997 31.5181C79.4427 32.3377 79.0347 33.1574 78.5655 33.977C78.1014 34.7966 77.5965 35.5705 77.0559 36.2985C76.5102 37.0265 75.9441 37.6272 75.3474 38.1159C75.0465 38.4112 74.7405 38.6098 74.4192 38.7014C74.103 38.793 73.7766 38.8389 73.44 38.8389C73.032 38.8389 72.5985 38.7829 72.1548 38.6759C71.706 38.5639 71.4816 38.2432 71.4816 37.7239C71.4408 37.1283 71.5734 36.4919 71.8743 35.8199C72.4302 34.593 73.1442 33.4526 74.001 32.409C74.8578 31.3653 75.7758 30.3624 76.7448 29.39C76.9692 29.1304 77.1681 28.8708 77.3364 28.606C77.4996 28.3464 77.622 28.0511 77.6985 27.7151C78.5961 24.8031 78.9888 21.8605 78.8766 18.8772C78.8766 18.5769 78.8664 18.2816 78.846 17.9812C78.8256 17.686 78.744 17.3856 78.5961 17.0903C78.5553 16.8663 78.4278 16.7543 78.2034 16.7543C77.8668 16.7543 77.4639 17.0038 76.9998 17.5078C76.5306 18.0118 76.0818 18.5972 75.6534 19.2692C75.225 19.9412 74.8425 20.5929 74.5059 21.2242C74.1693 21.8605 73.9449 22.3085 73.8327 22.5682C73.1238 24.2482 72.5169 25.9231 72.012 27.6031C71.5071 29.278 71.0532 30.9937 70.6401 32.745C70.1148 34.9443 69.6405 37.1283 69.2121 39.2869C68.7837 41.4505 68.3604 43.6498 67.9524 45.8847C67.8759 46.3327 67.83 46.7807 67.8096 47.2287C67.7943 47.6767 67.7637 48.1247 67.728 48.5728C67.6872 48.9088 67.5597 49.1582 67.3353 49.3262C67.1109 49.4942 66.8508 49.6164 66.5499 49.6877C66.2541 49.764 65.943 49.8098 65.6268 49.8302C65.3106 49.8455 65.0403 49.8557 64.8159 49.8557C64.6272 49.8557 64.4232 49.8557 64.1988 49.8557C63.9744 49.8557 63.7704 49.8404 63.5817 49.7997C63.393 49.7997 63.2247 49.7437 63.0768 49.6317C62.9289 49.5197 62.7759 49.3924 62.628 49.2448C61.9956 48.308 61.557 47.2287 61.3122 45.9967C61.0725 44.7698 60.9501 43.6142 60.9501 42.5298C60.9093 40.3305 60.894 38.1414 60.894 35.9625C60.894 33.7784 60.9858 31.5893 61.1745 29.39C61.2102 28.494 61.302 27.3588 61.455 25.9791C61.6029 24.5995 61.8273 23.1842 62.1231 21.7282C62.424 20.2772 62.7861 18.8976 63.2145 17.5892C63.648 16.2859 64.158 15.2779 64.7598 14.5703C65.0199 14.3107 65.2443 14.1783 65.4279 14.1783C65.5401 14.1783 65.7084 14.2343 65.9328 14.3463C66.2694 14.5347 66.5958 14.7281 66.912 14.9368C67.2333 15.1405 67.5393 15.3543 67.8402 15.5783C68.136 15.7667 68.4267 15.9245 68.7072 16.0518C68.9877 16.1841 69.2937 16.2656 69.6303 16.3063C70.3392 16.4183 70.7523 16.8663 70.8645 17.6452C70.941 18.1696 71.0022 18.7092 71.0583 19.2692C71.1144 19.8292 71.1246 20.3893 71.0889 20.9493C71.0532 21.3565 71.0226 21.7485 71.0022 22.1202C70.9869 22.4918 70.9563 22.9042 70.9206 23.3522Z" fill="#E23E8F"/>
<path d="M129.515 23.6882C129.219 24.2075 128.908 24.6656 128.591 25.0576C128.275 25.4497 127.949 25.8467 127.612 26.2591C125.557 28.5704 123.782 31.0853 122.288 33.809C122.176 34.033 122.114 34.2468 122.094 34.4505C122.074 34.6592 122.176 34.873 122.4 35.097C123.002 35.6926 123.344 36.3443 123.44 37.0519C123.532 37.7596 123.43 38.4876 123.129 39.2309C122.981 39.6076 122.783 40.025 122.543 40.4883C122.298 40.9567 122.012 41.3945 121.676 41.8069C121.339 42.2142 120.962 42.5501 120.554 42.8098C120.141 43.0745 119.697 43.2018 119.207 43.2018C118.871 43.2018 118.483 43.1356 118.034 43.0083C117.586 42.876 117.326 42.6062 117.249 42.1989C117.213 41.7101 117.285 41.1705 117.473 40.5749C117.657 39.8672 117.892 39.1749 118.172 38.5079C118.453 37.8359 118.743 37.1843 119.039 36.5479C119.304 35.9879 119.417 35.6061 119.376 35.4025C119.34 35.1988 119.06 35.097 118.539 35.097H118.034C117.881 35.1326 117.657 35.153 117.361 35.153C116.724 35.153 116.127 35.041 115.566 34.817C115.117 34.6643 114.801 34.4912 114.617 34.2824C114.429 34.0788 114.337 33.7174 114.337 33.193C114.449 31.5181 114.663 29.8686 114.98 28.2446C115.296 26.6206 115.643 25.0118 116.015 23.4082C116.056 23.2198 116.091 23.062 116.127 22.9347C116.168 22.8024 116.112 22.6445 115.959 22.4562C115.775 22.5325 115.632 22.6445 115.541 22.7922C115.444 22.9398 115.342 23.0925 115.229 23.2402C114.633 24.1362 114.092 25.0678 113.608 26.0351C113.123 27.0024 112.674 27.9748 112.261 28.942C111.588 30.4693 110.869 31.961 110.104 33.417C109.339 34.873 108.492 36.2883 107.559 37.6679C107.069 38.3399 106.401 38.7116 105.539 38.7829C104.795 38.7829 104.076 38.7676 103.382 38.7319C102.694 38.6912 101.975 38.5792 101.225 38.3959C100.144 38.0956 99.4143 37.4541 99.042 36.4665C98.6697 35.4788 98.4249 34.4963 98.3127 33.529C98.2005 32.3377 98.2107 31.1515 98.3433 29.9806C98.4708 28.8046 98.6697 27.6184 98.9298 26.4271C99.3021 24.7878 99.8172 23.0264 100.47 21.1427C101.123 19.2591 101.862 17.574 102.683 16.0823C102.908 15.7463 103.148 15.5783 103.413 15.5783C103.525 15.5783 103.693 15.6139 103.918 15.6903C104.514 15.9907 105.131 16.2605 105.764 16.4998C106.401 16.7441 107.054 16.9223 107.727 17.0343C108.436 17.1819 108.9 17.6452 109.125 18.4292C109.313 19.1369 109.349 19.9209 109.237 20.7813C109.16 21.3362 109.069 21.8962 108.956 22.4562C108.844 23.0162 108.732 23.5762 108.62 24.1362C108.324 25.5515 108.033 26.9871 107.753 28.438C107.472 29.8941 107.222 31.3501 106.998 32.801C106.957 32.8773 106.942 33.0046 106.942 33.193C106.901 33.2694 106.896 33.3406 106.911 33.417C106.932 33.4934 106.978 33.5086 107.054 33.473C107.238 33.473 107.35 33.417 107.391 33.305C107.615 33.0046 107.84 32.6533 108.059 32.241C108.395 31.6097 108.722 30.9835 109.043 30.3675C109.359 29.7566 109.686 29.1304 110.022 28.494C110.507 27.6031 110.981 26.6969 111.45 25.7857C111.914 24.8693 112.394 23.9682 112.878 23.0722C113.363 22.1762 113.96 21.2802 114.674 20.3892C114.821 20.2365 114.954 20.0991 115.061 19.9667C115.173 19.8394 115.306 19.6969 115.454 19.5492C115.678 19.3252 115.943 19.2132 116.239 19.2132C116.351 19.2132 116.52 19.2489 116.744 19.3252C116.933 19.4016 117.127 19.4729 117.331 19.5492C117.54 19.6256 117.734 19.6816 117.922 19.7172C118.631 19.8649 119.039 20.3332 119.151 21.1122C119.228 21.7129 119.248 22.2882 119.207 22.8482C119.172 23.4082 119.095 23.9835 118.983 24.5791C118.759 25.7347 118.539 26.8853 118.315 28.0206C118.091 29.1559 117.846 30.3064 117.586 31.4621C117.509 31.8337 117.473 32.1493 117.473 32.409C117.397 32.9333 117.397 33.2388 117.473 33.3355C117.545 33.4272 117.846 33.5086 118.371 33.585L119.039 33.753C119.228 33.8294 119.396 33.8854 119.544 33.921C119.697 33.9566 119.804 33.977 119.881 33.977C120.069 33.977 120.197 33.9006 120.273 33.753C120.35 33.6054 120.477 33.361 120.666 33.025C121.411 31.4621 122.242 29.9704 123.16 28.55C124.073 27.1348 125.093 25.7755 126.21 24.4722C126.322 24.3195 126.434 24.1922 126.546 24.0802C126.659 23.9682 126.771 23.8358 126.883 23.6882C127.255 23.2758 127.536 23.0722 127.724 23.0722C127.837 23.0722 127.959 23.0976 128.087 23.1536C128.219 23.2096 128.398 23.2758 128.622 23.3522C128.77 23.4235 128.908 23.4795 129.04 23.5202C129.173 23.5558 129.331 23.6118 129.515 23.6882Z" fill="#E23E8F"/>
<path d="M153.551 23.8562C153.551 24.0802 153.474 24.2482 153.326 24.3602C153.173 24.4722 153.01 24.5638 152.821 24.6351C151.74 25.1595 150.741 25.7908 149.823 26.5391C148.91 27.2824 148.002 28.0664 147.109 28.886C146.548 29.3341 146.304 29.8941 146.38 30.5661C146.416 31.2737 146.416 31.9813 146.38 32.689C146.339 33.4374 146.181 34.2926 145.901 35.2599C145.62 36.2323 145.222 37.1538 144.697 38.0294C144.177 38.905 143.539 39.6432 142.795 40.2389C142.045 40.8345 141.224 41.1349 140.326 41.1349C139.99 41.1349 139.73 41.1145 139.546 41.0789C138.944 41.0025 138.501 40.7683 138.2 40.3763C137.899 39.9894 137.787 39.4956 137.863 38.8949C138.011 38.2636 138.256 37.6018 138.592 36.9145C138.929 36.2221 139.312 35.5399 139.74 34.873C140.168 34.201 140.607 33.5595 141.056 32.9435C141.505 32.3275 141.933 31.7573 142.346 31.2381C142.754 30.7493 142.922 30.1384 142.851 29.3901C142.774 29.0184 142.708 28.657 142.652 28.3006C142.596 27.9442 142.474 27.6031 142.29 27.2671C142.066 26.9311 141.821 26.7631 141.561 26.7631C141.372 26.7631 141.224 26.7988 141.112 26.8751C140.214 27.3231 139.439 28.041 138.786 29.0286C138.133 30.0162 137.618 30.9581 137.246 31.849C137.022 32.3734 136.838 32.8875 136.685 33.3915C136.537 33.8904 136.369 34.4046 136.185 34.929C135.884 35.9727 135.849 37.1283 136.073 38.3959C136.257 38.9509 136.313 39.5109 136.241 40.0709C136.241 40.7072 135.92 41.0992 135.288 41.2469C135.063 41.3181 134.839 41.3589 134.614 41.3589C134.39 41.3589 134.145 41.3741 133.885 41.4149C133.773 41.4149 133.661 41.4251 133.549 41.4403C133.436 41.4607 133.324 41.4709 133.212 41.4709C131.162 41.4709 129.514 40.4832 128.285 38.5079C126.755 36.2323 125.817 33.7734 125.485 31.1261C125.409 30.0417 125.363 28.9522 125.343 27.8526C125.327 26.7529 125.353 25.6431 125.429 24.5231C125.577 21.9522 125.904 19.3609 126.409 16.7543C126.913 14.1427 127.704 11.6634 128.79 9.31644C128.938 9.0568 129.061 8.80225 129.152 8.56298C129.244 8.31861 129.367 8.06916 129.514 7.80443C129.963 6.91351 130.514 6.0175 131.167 5.1215C131.825 4.22549 132.569 3.40585 133.411 2.66257C134.252 1.9142 135.165 1.30838 136.155 0.845099C137.144 0.376731 138.164 0.142548 139.21 0.142548C140.439 0.142548 141.729 0.498914 143.075 1.20656C143.483 1.43056 143.876 1.65456 144.248 1.87856C144.626 2.10256 145.013 2.3062 145.426 2.49457C145.84 2.67784 146.181 2.92221 146.462 3.22257C146.742 3.51785 146.977 3.85385 147.16 4.22549C147.497 4.93313 147.721 5.70186 147.834 6.52151C148.022 7.63643 148.033 8.72589 147.864 9.7899C147.696 10.8539 147.461 11.923 147.16 13.0074C146.788 14.3107 146.268 15.6343 145.595 16.9783C144.922 18.3172 144.1 19.5391 143.131 20.6387C142.157 21.7384 141.056 22.6445 139.827 23.3522C138.592 24.0598 137.21 24.4518 135.68 24.5231C135.344 24.5231 135.13 24.5638 135.033 24.6351C134.941 24.7115 134.895 24.8998 134.895 25.1951C134.783 27.0584 134.783 28.942 134.895 30.8461C134.931 30.9173 134.951 30.9835 134.951 31.0395C134.951 31.0955 134.971 31.1617 135.007 31.2381C135.043 31.2737 135.084 31.2941 135.119 31.2941H135.344C135.415 31.1413 135.502 30.9937 135.594 30.8461C135.685 30.6933 135.772 30.5457 135.849 30.3981C136.032 29.9501 136.303 29.4461 136.66 28.886C137.011 28.326 137.414 27.7966 137.863 27.2926C138.312 26.7886 138.796 26.3609 139.322 26.0097C139.842 25.6533 140.383 25.4751 140.944 25.4751C141.316 25.4751 141.596 25.5158 141.785 25.5871C141.974 25.6635 142.132 25.7195 142.259 25.7551C142.392 25.7908 142.55 25.8315 142.739 25.8671C143.259 25.9435 143.754 26.0657 144.223 26.2337C144.687 26.4017 145.09 26.7071 145.426 27.1551C145.503 27.2671 145.595 27.3231 145.707 27.3231C145.819 27.3231 145.931 27.2671 146.044 27.1551C146.452 26.8191 146.854 26.4729 147.247 26.1217C147.64 25.7653 148.043 25.4038 148.451 25.0271C148.823 24.7318 149.19 24.4417 149.542 24.1616C149.899 23.8816 150.282 23.6118 150.69 23.3522C151.067 23.1638 151.363 23.0722 151.587 23.0722C151.812 23.0722 152.056 23.1485 152.317 23.2962C152.505 23.4082 152.709 23.51 152.934 23.6016C153.158 23.6984 153.362 23.7798 153.551 23.8562ZM145.987 8.30843C145.911 7.97243 145.865 7.63643 145.845 7.30042C145.829 6.96951 145.799 6.64878 145.763 6.35351C145.687 6.1295 145.62 5.89532 145.564 5.65096C145.508 5.41168 145.447 5.19786 145.37 5.0095C144.957 3.85385 144.457 3.27857 143.856 3.27857C143.412 3.27857 142.795 3.66548 142.009 4.44949C141.525 5.0095 141.04 5.69168 140.551 6.49096C140.066 7.29533 139.607 8.13025 139.179 9.00589C138.751 9.88663 138.348 10.7623 137.975 11.6379C137.603 12.5136 137.287 13.2874 137.022 13.9543C136.501 15.2627 136.099 16.5761 135.818 17.8998C135.538 19.2234 135.323 20.5725 135.175 21.9522C135.14 22.1405 135.119 22.3085 135.119 22.4562C135.119 22.6038 135.119 22.7565 135.119 22.9042C135.119 23.0926 135.211 23.1842 135.4 23.1842C135.583 23.1842 135.864 23.1485 136.241 23.0722C137.547 22.7005 138.715 22.0947 139.74 21.2547C140.765 20.4147 141.663 19.4372 142.428 18.3172C143.193 17.2023 143.851 16.0059 144.391 14.7383C144.932 13.4707 145.335 12.2437 145.595 11.0474C145.707 10.6044 145.799 10.1463 145.875 9.6779C145.947 9.21462 145.987 8.75643 145.987 8.30843ZM139.602 39.5109C139.674 39.5872 139.714 39.6636 139.714 39.7349C139.714 39.8112 139.75 39.8672 139.827 39.9029C139.862 39.9385 139.898 39.9589 139.939 39.9589C140.046 39.9589 140.143 39.9232 140.214 39.8469C140.964 39.1036 141.505 38.2839 141.841 37.3879C142.178 36.4919 142.402 35.5603 142.514 34.593C142.514 34.4403 142.474 34.369 142.402 34.369C142.361 34.3283 142.27 34.3486 142.122 34.425L141.953 34.593C141.168 35.6366 140.495 36.7516 139.939 37.9479C139.827 38.2076 139.73 38.457 139.658 38.7014C139.582 38.9458 139.561 39.2156 139.602 39.5109Z" fill="#E23E8F"/>
<path d="M159.375 32.577C159.411 33.2134 159.431 33.8548 159.431 34.5065C159.431 35.1581 159.487 35.8199 159.599 36.4919C159.635 36.7923 159.701 37.0825 159.793 37.3574C159.89 37.6374 159.992 37.9276 160.104 38.2279C160.288 38.5639 160.497 38.7829 160.721 38.8949C160.946 39.0069 161.226 39.0629 161.558 39.0629C162.716 39.0272 163.781 38.7116 164.756 38.1159C166.245 37.0723 167.555 35.8505 168.672 34.4505C169.794 33.0555 170.728 31.5181 171.477 29.8381C171.885 28.942 172.298 28.0511 172.706 27.1551C173.12 26.2591 173.528 25.3631 173.941 24.4722C174.017 24.2838 174.099 24.1158 174.191 23.9682C174.287 23.8155 174.389 23.6678 174.502 23.5202C174.537 23.3675 174.65 23.2962 174.838 23.2962C174.95 23.2962 175.022 23.3165 175.063 23.3522L176.067 23.8562C176.368 23.9682 176.445 24.1515 176.292 24.4162C175.919 25.5311 175.425 26.7071 174.808 27.9391C174.191 29.166 173.512 30.3879 172.763 31.5995C172.018 32.8112 171.207 33.9566 170.325 35.041C169.448 36.1203 168.581 37.0876 167.724 37.9479C166.862 38.8032 165.929 39.4192 164.924 39.7909C163.914 40.1625 162.848 40.3509 161.726 40.3509C159.676 40.3509 157.825 39.9029 156.182 39.0069C154.54 38.1159 153.061 36.8839 151.756 35.3159C150.71 34.089 150.149 32.633 150.078 30.9581C149.966 28.942 150.068 26.9769 150.384 25.0577C150.7 23.1384 151.327 21.2802 152.261 19.4932C152.709 18.5616 153.281 17.686 153.969 16.8663C154.658 16.0467 155.433 15.3288 156.295 14.7128C157.151 14.0968 158.08 13.603 159.069 13.2314C160.058 12.8546 161.073 12.6714 162.119 12.6714C163.317 12.6714 164.434 12.9514 165.48 13.5114C165.781 13.659 166.051 13.8067 166.296 13.9543C166.535 14.107 166.806 14.2343 167.107 14.3463C168.377 14.947 169.162 15.9907 169.458 17.4772C169.646 18.6736 169.59 19.7834 169.289 20.8067C168.994 21.83 168.489 22.8278 167.78 23.8002C167.331 24.3195 166.734 24.8031 165.985 25.2511C165.24 25.6991 164.49 25.9231 163.746 25.9231C163.108 25.9231 162.476 25.8111 161.838 25.5871C161.655 25.5158 161.456 25.4395 161.252 25.3631C161.048 25.2918 160.849 25.2155 160.665 25.1391C160.553 25.1035 160.421 25.0831 160.273 25.0831C160.084 25.0831 159.972 25.2511 159.936 25.5871C159.523 27.4504 159.339 29.7821 159.375 32.577ZM167.387 18.8212C167.387 18.5616 167.357 18.2154 167.3 17.7878C167.244 17.3601 167.142 16.9376 166.994 16.5303C166.847 16.1179 166.648 15.7667 166.408 15.4663C166.163 15.1659 165.872 15.0183 165.536 15.0183C165.352 15.0183 165.143 15.0743 164.924 15.1863C164.546 15.2983 164.2 15.5019 163.883 15.8023C163.567 16.1027 163.287 16.4336 163.042 16.8103C162.802 17.182 162.578 17.5638 162.374 17.9558C162.165 18.3478 162.007 18.7092 161.894 19.0452C161.67 19.6816 161.456 20.3129 161.252 20.9493C161.048 21.5805 160.849 22.2118 160.665 22.8482C160.441 23.4795 160.41 23.8664 160.579 23.9936C160.747 24.126 161.038 24.3042 161.446 24.5231C161.67 24.6351 161.915 24.6911 162.175 24.6911C162.399 24.6911 162.659 24.6555 162.96 24.5791C163.746 24.3602 164.419 24.0344 164.975 23.6016C165.536 23.174 166.005 22.6904 166.377 22.1507C166.75 21.6111 167.015 21.0511 167.163 20.4707C167.311 19.8954 167.387 19.3456 167.387 18.8212Z" fill="#E23E8F"/>
<path d="M181.504 31.5181C181.728 31.4417 181.876 31.2992 181.953 31.0955C182.024 30.8919 182.101 30.6933 182.177 30.5101C182.437 29.9857 182.784 29.278 183.213 28.382C183.641 27.4911 184.11 26.5849 184.61 25.6737C185.115 24.7573 185.62 23.8918 186.125 23.0722C186.63 22.2525 187.068 21.6569 187.44 21.2802C187.553 21.1325 187.701 21.0562 187.889 21.0562C188.001 21.0562 188.093 21.0765 188.17 21.1122C188.802 21.4889 189.419 21.7282 190.016 21.8402C190.353 21.9522 190.521 22.1965 190.521 22.5682C190.562 22.8685 190.562 23.1485 190.521 23.4082C190.485 23.6678 190.429 23.9478 190.353 24.2482C190.205 24.9915 190.067 25.7093 189.934 26.4017C189.802 27.0889 189.664 27.7864 189.516 28.494V28.942C189.776 28.8708 189.945 28.7282 190.016 28.5246C190.092 28.3209 190.169 28.1224 190.24 27.9391C190.429 27.5268 190.801 26.8191 191.362 25.8111C191.923 24.8031 192.551 23.7696 193.239 22.7107C193.928 21.6467 194.621 20.7049 195.31 19.8852C196.003 19.0656 196.575 18.6532 197.018 18.6532C197.207 18.6532 197.375 18.7092 197.523 18.8212C197.824 19.0096 198.105 19.1674 198.365 19.2998C198.625 19.4271 198.926 19.5289 199.262 19.6052C199.599 19.7172 199.803 20.0125 199.879 20.5013C199.915 21.1682 199.823 21.8605 199.599 22.5682C199.339 23.4235 199.084 24.3042 198.839 25.1951C198.599 26.0911 198.329 26.9668 198.028 27.8271C197.171 30.5457 196.575 33.2286 196.238 35.8759C196.161 36.3647 196.116 36.8381 196.095 37.3014C196.08 37.7698 196.105 38.2636 196.182 38.7829C196.182 38.8949 196.253 38.9509 196.406 38.9509C196.518 38.9509 196.59 38.9356 196.631 38.8949C197.375 37.8156 198.048 36.6956 198.645 35.5399C199.242 34.3843 199.803 33.2134 200.328 32.017C200.736 31.0853 201.149 30.1639 201.557 29.2526C201.97 28.3362 202.378 27.4148 202.791 26.4831C203.087 25.8875 203.388 25.302 203.689 24.7216C203.985 24.1413 204.321 23.5915 204.694 23.0722C204.847 22.8125 205.01 22.6802 205.199 22.6802C205.234 22.6802 205.367 22.7158 205.591 22.7922C205.78 22.9042 205.948 23.006 206.096 23.0976C206.244 23.1944 206.412 23.2758 206.601 23.3522C206.826 23.5355 206.897 23.7442 206.826 23.9682C206.601 24.5995 206.331 25.2358 206.01 25.8671C205.693 26.5035 205.367 27.1144 205.03 27.7151C204.133 29.3137 203.286 30.9275 202.48 32.5515C201.68 34.1705 200.884 35.8199 200.104 37.4999C199.655 38.4316 199.094 39.3989 198.421 40.4069C197.86 41.0789 197.227 41.4149 196.518 41.4149C196.294 41.4149 196.105 41.3945 195.957 41.3589C195.697 41.3589 195.509 41.3385 195.396 41.3029C194.647 41.1145 194.096 40.8345 193.744 40.4629C193.387 40.0912 193.173 39.5109 193.101 38.7319C192.948 37.6476 192.933 36.5785 193.045 35.5145C193.158 34.4505 193.305 33.3814 193.489 32.297C193.79 30.8817 194.127 29.4919 194.499 28.1326C194.871 26.7733 195.284 25.4191 195.733 24.0802C195.81 23.8918 195.861 23.734 195.901 23.6016C195.937 23.4744 195.957 23.3165 195.957 23.1282C195.917 23.0925 195.861 23.0722 195.789 23.0722C195.677 23.0722 195.6 23.1078 195.565 23.1842C195.529 23.2605 195.473 23.3318 195.396 23.4082C194.759 24.2635 194.183 25.1391 193.657 26.0351C193.137 26.9311 192.668 27.8628 192.26 28.83C191.923 29.5784 191.587 30.3217 191.25 31.0701C190.914 31.8133 190.562 32.5617 190.184 33.305C189.776 34.201 189.307 34.649 188.787 34.649C188.262 34.649 187.752 34.4912 187.247 34.1705C186.742 33.8548 186.451 33.4374 186.375 32.913C186.303 32.241 186.247 31.5792 186.211 30.9275C186.171 30.2759 186.191 29.6344 186.267 28.998C186.267 28.7384 186.273 28.494 186.293 28.27C186.313 28.0511 186.324 27.8271 186.324 27.6031C186.324 27.4911 186.267 27.4351 186.155 27.4351C186.043 27.4351 185.967 27.4708 185.931 27.5471C185.778 27.7304 185.65 27.9748 185.538 28.27C185.125 29.166 184.717 30.0977 184.304 31.0701C183.672 32.6737 183.065 34.2672 182.483 35.8505C181.907 37.4337 181.3 39.0272 180.663 40.6309C180.627 40.7072 180.586 40.7887 180.55 40.8803C180.515 40.9771 180.474 41.0585 180.438 41.1349C180.178 41.8425 179.933 42.316 179.709 42.5603C179.484 42.7996 179.097 42.9218 178.536 42.9218C178.424 42.9218 178.311 42.9218 178.199 42.9218C178.087 42.9218 177.939 42.9065 177.75 42.8658C176.817 42.7945 175.894 42.6367 174.976 42.3923C174.063 42.148 173.359 41.5625 172.875 40.6309C172.538 39.9945 172.268 39.3429 172.064 38.6759C171.86 38.0039 171.717 37.2963 171.646 36.5479C171.457 34.2723 171.59 32.073 172.038 29.9501C172.222 29.054 172.482 28.0104 172.819 26.8191C173.155 25.6278 173.548 24.4162 173.997 23.1842C174.446 21.9522 174.93 20.7813 175.455 19.6612C175.976 18.5412 176.537 17.6096 177.133 16.8663C177.358 16.6423 177.546 16.5303 177.694 16.5303C177.883 16.5303 178.031 16.5659 178.143 16.6423C178.327 16.7543 178.526 16.8663 178.73 16.9783C178.934 17.0903 179.153 17.2023 179.372 17.3143C179.785 17.5332 180.188 17.7216 180.581 17.8692C180.969 18.022 181.392 18.134 181.841 18.2052C182.361 18.246 182.718 18.5616 182.901 19.1572C183.09 19.6409 183.182 20.1245 183.182 20.6133C183.182 21.0969 183.146 21.5805 183.07 22.0642C182.886 23.1078 182.697 24.1413 182.514 25.1697C182.325 26.1929 182.136 27.2264 181.953 28.27C181.876 28.7588 181.785 29.2424 181.672 29.7261C181.56 30.2097 181.468 30.6933 181.392 31.1821C181.392 31.3653 181.428 31.4773 181.504 31.5181Z" fill="#E23E8F"/>
<path d="M221.447 24.3602C221.406 24.6911 221.381 25.0373 221.36 25.3937C221.34 25.7449 221.335 26.0911 221.335 26.4271C221.258 26.8395 221.427 27.0024 221.835 26.9311C222.212 26.9311 222.62 26.8548 223.069 26.7071C223.518 26.5595 223.967 26.3609 224.415 26.1217C224.864 25.8773 225.272 25.6177 225.644 25.3377C226.022 25.0577 226.338 24.7878 226.598 24.5231C226.899 24.1922 227.195 23.8715 227.496 23.5762C227.792 23.2758 228.149 22.9806 228.562 22.6802C228.674 22.5682 228.801 22.5122 228.949 22.5122C229.061 22.5122 229.174 22.5682 229.286 22.6802C229.398 22.7922 229.52 22.9042 229.653 23.0162C229.78 23.1282 229.903 23.2402 230.015 23.3522C230.428 23.6475 230.653 23.8562 230.688 23.9682C230.724 24.0802 230.556 24.3398 230.183 24.7471C229.214 25.8315 228.092 26.7886 226.823 27.6286C225.553 28.4686 224.17 28.8861 222.676 28.8861C222.605 28.8861 222.508 28.8759 222.396 28.8606C222.284 28.8402 222.192 28.8301 222.115 28.8301H221.666C221.258 28.8301 221.024 28.9064 220.968 29.0541C220.912 29.2068 220.81 29.5224 220.662 30.0061C220.509 30.5253 220.391 31.0293 220.295 31.5181C220.203 32.0017 220.08 32.4854 219.932 32.969C219.744 33.8294 219.473 34.7508 219.121 35.7385C218.764 36.7261 218.316 37.6374 217.775 38.4774C217.235 39.3174 216.582 40.0047 215.817 40.5443C215.047 41.0891 214.124 41.3589 213.042 41.3589C212.221 41.3182 211.39 41.2011 210.548 40.9923C209.707 40.7887 208.906 40.5189 208.141 40.1829C207.376 39.8469 206.662 39.409 206.009 38.8694C205.357 38.3298 204.806 37.7036 204.357 36.9959C203.5 35.5807 202.904 34.1348 202.567 32.6635C202.23 31.1923 202.23 29.6344 202.567 27.9951C202.751 27.2824 202.914 26.5748 203.041 25.8671C203.174 25.1595 203.368 24.4722 203.633 23.8002C203.74 23.4235 203.949 22.95 204.245 22.3747C204.546 21.7944 204.892 21.2445 205.285 20.7253C205.673 20.2009 206.106 19.7427 206.57 19.3558C207.04 18.9638 207.514 18.7652 207.998 18.7652C208.447 18.7652 208.932 18.9536 209.457 19.3252C209.605 19.4373 209.748 19.5493 209.875 19.6613C210.008 19.7733 210.166 19.8649 210.355 19.9413C210.39 19.9769 210.446 19.9973 210.523 19.9973C210.671 19.9973 210.763 19.9209 210.803 19.7733C210.839 19.5849 210.86 19.3049 210.86 18.9332C210.931 18.4852 211.079 18.0118 211.303 17.5078C211.528 17.0038 211.808 16.5405 212.145 16.1078C212.481 15.6801 212.874 15.3339 213.323 15.0743C213.772 14.8147 214.256 14.6823 214.776 14.6823C215.378 14.6823 215.919 14.8503 216.403 15.1863C216.811 15.4103 217.204 15.6241 217.581 15.8278C217.954 16.0365 218.326 16.2656 218.698 16.5303C219.785 17.2023 220.509 18.1492 220.886 19.3813C221.146 20.2009 221.315 21.0205 221.391 21.8402C221.462 22.6598 221.483 23.4998 221.447 24.3602ZM211.415 35.041C211.415 35.2599 211.446 35.6163 211.502 36.0999C211.558 36.5836 211.65 37.0825 211.783 37.5814C211.91 38.0854 212.089 38.5232 212.313 38.8949C212.537 39.2716 212.798 39.4549 213.098 39.4549C213.394 39.4549 213.715 39.3072 214.052 39.0069C214.46 38.7116 214.822 38.3501 215.144 37.9174C215.46 37.4898 215.71 37.0519 215.898 36.6039C216.979 34.481 217.806 32.353 218.362 30.2301C218.438 29.9704 218.494 29.7159 218.53 29.4766C218.571 29.2322 218.627 28.9828 218.698 28.7181C218.775 28.27 218.627 27.9544 218.249 27.7711C216.719 27.0228 215.302 26.1675 213.996 25.1951C213.884 25.0831 213.772 25.0271 213.659 25.0271C213.471 25.0271 213.323 25.1595 213.211 25.4191C212.874 26.0148 212.614 26.6409 212.425 27.2926C212.236 27.9442 212.068 28.5908 211.92 29.2221C211.737 30.2301 211.63 31.2279 211.614 32.2155C211.594 33.2032 211.528 34.145 211.415 35.041ZM219.147 24.3042C219.183 23.2606 219.137 22.2984 219.009 21.4227C218.877 20.5471 218.606 19.6969 218.193 18.8772C217.897 18.2052 217.525 17.6096 217.076 17.0903C216.888 16.902 216.663 16.8103 216.403 16.8103C216.255 16.8103 216.143 16.8256 216.067 16.8663C215.133 17.2736 214.481 17.9252 214.108 18.8212C213.731 19.7173 213.619 20.5725 213.772 21.3922C213.807 21.6569 213.909 21.8605 214.078 22.0082C214.246 22.1558 214.389 22.3238 214.496 22.5122C214.608 22.7362 214.649 22.9806 214.608 23.2402C214.572 23.4998 214.649 23.7595 214.832 24.0242C215.842 25.2511 217.02 26.1115 218.362 26.5951C218.438 26.6308 218.53 26.6511 218.642 26.6511C218.866 26.6511 218.979 26.5188 218.979 26.2591C219.055 25.8875 219.101 25.5209 219.121 25.1697C219.137 24.8133 219.147 24.5231 219.147 24.3042Z" fill="#E23E8F"/>
<path d="M255 23.8562C255 24.0802 254.924 24.2482 254.776 24.3602C254.628 24.4722 254.459 24.5638 254.271 24.6351C253.19 25.1595 252.19 25.7908 251.277 26.5391C250.359 27.2824 249.456 28.0664 248.559 28.886C247.998 29.3341 247.753 29.8941 247.829 30.5661C247.865 31.2737 247.865 31.9813 247.829 32.689C247.794 33.4374 247.636 34.2926 247.355 35.2599C247.075 36.2323 246.672 37.1538 246.152 38.0294C245.626 38.905 244.994 39.6432 244.244 40.2389C243.5 40.8345 242.678 41.1349 241.781 41.1349C241.444 41.1349 241.184 41.1145 240.995 41.0789C240.399 41.0025 239.95 40.7683 239.649 40.3763C239.353 39.9894 239.241 39.4956 239.318 38.8949C239.465 38.2636 239.705 37.6018 240.042 36.9145C240.378 36.2221 240.761 35.5399 241.189 34.873C241.623 34.201 242.061 33.5595 242.51 32.9435C242.954 32.3275 243.387 31.7573 243.795 31.2381C244.208 30.7493 244.377 30.1384 244.3 29.3901C244.224 29.0184 244.163 28.657 244.106 28.3006C244.05 27.9442 243.928 27.6031 243.739 27.2671C243.515 26.9311 243.275 26.7631 243.01 26.7631C242.826 26.7631 242.678 26.7988 242.566 26.8751C241.669 27.3231 240.893 28.041 240.241 29.0286C239.588 30.0162 239.073 30.9581 238.7 31.849C238.476 32.3734 238.287 32.8875 238.139 33.3915C237.992 33.8904 237.823 34.4046 237.635 34.929C237.334 35.9727 237.298 37.1283 237.522 38.3959C237.711 38.9509 237.767 39.5109 237.691 40.0709C237.691 40.7072 237.374 41.0992 236.737 41.2469C236.513 41.3181 236.288 41.3589 236.064 41.3589C235.839 41.3589 235.6 41.3741 235.34 41.4149C235.227 41.4149 235.115 41.4251 235.003 41.4403C234.891 41.4607 234.779 41.4709 234.666 41.4709C232.611 41.4709 230.969 40.4832 229.735 38.5079C228.205 36.2323 227.271 33.7734 226.935 31.1261C226.858 30.0417 226.812 28.9522 226.797 27.8526C226.777 26.7529 226.802 25.6431 226.879 24.5231C227.027 21.9522 227.353 19.3609 227.858 16.7543C228.363 14.1427 229.158 11.6634 230.24 9.31644C230.387 9.0568 230.51 8.80225 230.602 8.56298C230.699 8.31861 230.821 8.06916 230.969 7.80443C231.418 6.91351 231.968 6.0175 232.621 5.1215C233.274 4.22549 234.019 3.40585 234.86 2.66257C235.702 1.9142 236.615 1.30838 237.604 0.845099C238.593 0.376731 239.613 0.142548 240.659 0.142548C241.893 0.142548 243.178 0.498914 244.525 1.20656C244.938 1.43056 245.325 1.65456 245.703 1.87856C246.075 2.10256 246.468 2.3062 246.876 2.49457C247.289 2.67784 247.636 2.92221 247.916 3.22257C248.192 3.51785 248.426 3.85385 248.615 4.22549C248.951 4.93313 249.176 5.70186 249.288 6.52151C249.472 7.63643 249.482 8.72589 249.314 9.7899C249.145 10.8539 248.911 11.923 248.615 13.0074C248.243 14.3107 247.717 15.6343 247.044 16.9783C246.376 18.3172 245.55 19.5391 244.581 20.6387C243.612 21.7384 242.51 22.6445 241.276 23.3522C240.042 24.0598 238.66 24.4518 237.13 24.5231C236.793 24.5231 236.579 24.5638 236.487 24.6351C236.39 24.7115 236.344 24.8998 236.344 25.1951C236.232 27.0584 236.232 28.942 236.344 30.8461C236.385 30.9173 236.4 30.9835 236.4 31.0395C236.4 31.0955 236.421 31.1617 236.456 31.2381C236.497 31.2737 236.533 31.2941 236.569 31.2941H236.793C236.87 31.1413 236.951 30.9937 237.048 30.8461C237.14 30.6933 237.221 30.5457 237.298 30.3981C237.487 29.9501 237.757 29.4461 238.109 28.886C238.466 28.326 238.869 27.7966 239.318 27.2926C239.761 26.7886 240.251 26.3609 240.771 26.0097C241.296 25.6533 241.837 25.4751 242.398 25.4751C242.77 25.4751 243.051 25.5158 243.234 25.5871C243.423 25.6635 243.581 25.7195 243.714 25.7551C243.841 25.7908 244.004 25.8315 244.188 25.8671C244.713 25.9435 245.208 26.0657 245.672 26.2337C246.141 26.4017 246.539 26.7071 246.876 27.1551C246.952 27.2671 247.044 27.3231 247.156 27.3231C247.268 27.3231 247.381 27.2671 247.493 27.1551C247.906 26.8191 248.304 26.4729 248.696 26.1217C249.089 25.7653 249.492 25.4038 249.905 25.0271C250.277 24.7318 250.64 24.4417 250.997 24.1616C251.348 23.8816 251.731 23.6118 252.144 23.3522C252.516 23.1638 252.817 23.0722 253.042 23.0722C253.266 23.0722 253.506 23.1485 253.766 23.2962C253.955 23.4082 254.159 23.51 254.383 23.6016C254.607 23.6984 254.816 23.7798 255 23.8562ZM247.437 8.30843C247.365 7.97243 247.314 7.63643 247.299 7.30042C247.279 6.96951 247.253 6.64878 247.212 6.35351C247.141 6.1295 247.075 5.89532 247.019 5.65096C246.962 5.41168 246.896 5.19786 246.82 5.0095C246.412 3.85385 245.907 3.27857 245.31 3.27857C244.861 3.27857 244.244 3.66548 243.459 4.44949C242.974 5.0095 242.49 5.69168 242.005 6.49096C241.521 7.29533 241.062 8.13025 240.633 9.00589C240.2 9.88663 239.802 10.7623 239.425 11.6379C239.052 12.5136 238.736 13.2874 238.476 13.9543C237.951 15.2627 237.548 16.5761 237.272 17.8998C236.992 19.2234 236.778 20.5725 236.625 21.9522C236.589 22.1405 236.569 22.3085 236.569 22.4562C236.569 22.6038 236.569 22.7565 236.569 22.9042C236.569 23.0926 236.666 23.1842 236.849 23.1842C237.038 23.1842 237.318 23.1485 237.691 23.0722C238.996 22.7005 240.164 22.0947 241.189 21.2547C242.219 20.4147 243.117 19.4372 243.882 18.3172C244.647 17.2023 245.3 16.0059 245.84 14.7383C246.381 13.4707 246.784 12.2437 247.044 11.0474C247.156 10.6044 247.253 10.1463 247.325 9.6779C247.401 9.21462 247.437 8.75643 247.437 8.30843ZM241.052 39.5109C241.128 39.5872 241.164 39.6636 241.164 39.7349C241.164 39.8112 241.199 39.8672 241.276 39.9029C241.312 39.9385 241.352 39.9589 241.388 39.9589C241.5 39.9589 241.592 39.9232 241.669 39.8469C242.413 39.1036 242.954 38.2839 243.29 37.3879C243.627 36.4919 243.851 35.5603 243.964 34.593C243.964 34.4403 243.928 34.369 243.851 34.369C243.816 34.3283 243.724 34.3486 243.571 34.425L243.403 34.593C242.622 35.6366 241.949 36.7516 241.388 37.9479C241.276 38.2076 241.184 38.457 241.108 38.7014C241.031 38.9458 241.016 39.2156 241.052 39.5109Z" fill="#E23E8F"/>
</g>
<line y1="54.9728" x2="255" y2="54.9728" stroke="#E23E8F" stroke-width="0.923913"/>
<defs>
<clipPath id="clip0_305_6">
<rect width="255" height="49.8913" fill="white"/>
</clipPath>
</defs>
</svg>
