<svg width="25" height="25" viewBox="0 0 25 25" fill="none" xmlns="http://www.w3.org/2000/svg">
<path d="M1.5625 5.42969C2.38282 5.42969 3.63282 5.42969 4.33594 5.42969C4.6875 5.42969 4.96094 5.66406 5.07813 5.97656C5.42969 6.99219 6.21094 9.21875 7.10938 10.7422C8.32032 12.7344 9.10157 13.4766 9.60938 13.3984C10.1172 13.2812 9.96094 11.9531 9.96094 10.8984C9.96094 9.84375 10.0781 8.04688 9.57032 7.22656L8.78907 6.09375C8.59375 5.82031 8.78907 5.46875 9.10157 5.46875H13.5547C13.9844 5.46875 14.3359 5.82031 14.3359 6.25V11.9141C14.3359 11.9141 14.5313 12.9297 15.625 11.875C16.7188 10.8203 17.8906 8.86719 18.8672 6.875L19.2578 5.9375C19.375 5.66406 19.6484 5.46875 19.9609 5.46875H22.8516C23.3984 5.46875 23.7891 6.01563 23.5938 6.52344L23.2813 7.34375C23.2813 7.34375 22.2266 9.45312 21.1328 10.9375C20.0391 12.4609 19.8047 12.8125 19.9609 13.2031C20.1172 13.5938 22.9297 16.2109 23.6328 17.4609C23.8281 17.8125 23.9844 18.125 24.1406 18.3984C24.4141 18.9062 24.0234 19.5703 23.4375 19.5703H20.1563C19.8828 19.5703 19.6094 19.4141 19.4922 19.1797L19.1797 18.6719C19.1797 18.6719 17.1875 16.3281 15.9766 15.5859C14.7266 14.8828 14.7656 15.8984 14.7656 15.8984V17.9687C14.7656 18.8281 14.0625 19.5312 13.2031 19.5312H12.4219C12.4219 19.5312 8.125 19.5313 4.6875 14.4141C1.99219 10.4297 1.09375 7.85156 0.781254 6.36719C0.703129 5.89844 1.05469 5.42969 1.5625 5.42969Z" fill="white"/>
</svg>
