<svg width="28" height="28" viewBox="0 0 28 28" fill="none" xmlns="http://www.w3.org/2000/svg">
<path d="M6.30005 0.100006C4.40005 0.100006 2.80005 1.70001 2.80005 3.60001V24.4C2.80005 26.3 4.40005 27.9 6.30005 27.9H24.7001C25.3001 27.9 25.7001 27.4 25.7001 26.9C25.7001 26.3 25.2001 25.9 24.7001 25.9H6.30005C5.50005 25.9 4.90005 25.3 4.90005 24.5H24.7001C25.3001 24.5 25.7001 24 25.7001 23.5V3.60001C25.7001 1.70001 24.1 0.100006 22.2001 0.100006H6.30005ZM18.8 14.3V15C18.8 16.4 16.9 17.4 14.3 17.4C11.7 17.4 9.80005 16.4 9.80005 15V14.3C9.80005 13.7 10.3 13.3 10.8 13.3H17.7C18.3 13.3 18.8 13.8 18.8 14.3ZM16.7 9.50001C16.7 10.8 15.6 11.9 14.3 11.9C13 11.9 11.9 10.8 11.9 9.50001C11.9 8.20001 13 7.10001 14.3 7.10001C15.6 7.10001 16.7 8.10001 16.7 9.50001Z" fill="white"/>
</svg>
