<svg width="28" height="28" viewBox="0 0 28 28" fill="none" xmlns="http://www.w3.org/2000/svg">
<path fill-rule="evenodd" clip-rule="evenodd" d="M15.5244 19.5728C13.6772 18.3983 12.4444 16.3403 12.4444 13.9938C12.4444 13.8196 12.4693 13.6516 12.4833 13.4804C14.3267 14.6557 15.5556 16.7137 15.5556 19.0556C15.5556 19.2313 15.5392 19.4017 15.5244 19.5728ZM19.7136 5.08278C19.495 5.06722 19.2772 5.04933 19.0556 5.04933C18.8347 5.04933 18.6208 5.07656 18.4046 5.09211L16.9493 3.05589L17.3833 2.33256H20.7278L21.1618 3.05589L19.7136 5.08278ZM22.1916 5.62722L23.5052 3.79011C23.6372 3.60488 23.7123 3.38518 23.7213 3.15793C23.7302 2.93067 23.6727 2.70573 23.5558 2.51067L22.3891 0.566222C22.2854 0.393531 22.1388 0.250618 21.9636 0.151393C21.7883 0.052168 21.5903 1.14854e-05 21.3889 0H16.7222C16.5208 1.14854e-05 16.3228 0.052168 16.1475 0.151393C15.9723 0.250618 15.8257 0.393531 15.722 0.566222L14.5553 2.51067C14.4384 2.70573 14.3809 2.93067 14.3899 3.15793C14.3988 3.38518 14.4739 3.60488 14.6059 3.79011L15.9227 5.63267C14.0797 6.32672 12.5157 7.60663 11.4707 9.27578C12.2523 9.478 12.9974 9.76811 13.6936 10.1414C14.8952 8.47389 16.8482 7.38267 19.0556 7.38267C22.701 7.38267 25.6667 10.3483 25.6667 13.9938C25.6667 17.6392 22.701 20.6049 19.0556 20.6049C18.622 20.6042 18.1896 20.5612 17.7644 20.4766C17.8399 20.0122 17.8889 19.5401 17.8889 19.0556C17.8889 14.1237 13.8763 10.1111 8.94444 10.1111C4.01256 10.1111 0 14.1237 0 19.0556C0 23.9882 4.01256 28 8.94444 28C12.145 28 14.9497 26.3044 16.5309 23.7712C15.7583 23.5721 15.0123 23.2812 14.3088 22.9048C13.1079 24.5739 11.1533 25.6659 8.94444 25.6659C5.299 25.6659 2.33333 22.701 2.33333 19.0548C2.33333 15.4101 5.299 12.4437 8.94444 12.4437C9.38856 12.4437 9.82178 12.4903 10.2418 12.5743C10.1592 13.0431 10.1155 13.5178 10.1111 13.9938C10.1111 18.9249 14.1237 22.9382 19.0556 22.9382C23.9874 22.9382 28 18.9249 28 13.9938C28 10.1663 25.5796 6.902 22.1916 5.628V5.62722Z" fill="white"/>
</svg>
