<svg width="28" height="28" viewBox="0 0 28 28" fill="none" xmlns="http://www.w3.org/2000/svg">
<path d="M18.7 12.7C19.1 13.3 20.1 13.6 20.8 14C24.1 13.7 26.6 11.3 26.7 8.00001C26.7 7.70001 26.5 7.20001 26.3 7.10001C23.3 5.70001 20.8 5.50001 18.3 8.40001C16.8 10.1 17.9 11.4 18.7 12.7Z" fill="white"/>
<path d="M19.9 14.8C18.7 15 17 17.4 17.2 18.6C17.7 20.7 20.1 22.6 22.7 22.6C23.3 22.5 24.4 22.3 25.4 21.9C25.7 21.8 26.1 21.4 26.2 21.1C26.7 17.7 23.2 14.3 19.9 14.8Z" fill="white"/>
<path d="M15.2 9.50001C15.8 9.50001 16.7 9.20001 17 8.80001C19.3 6.00001 18.4 2.60001 14.7 0.100006C14.1 0.600006 13.5 1.10001 12.9 1.50001C11.1 3.10001 10.7 5.10001 11.3 7.40001C11.9 9.70001 13.5 9.60001 15.2 9.50001Z" fill="white"/>
<path d="M9.70001 15.3C9.40001 14.7 8.40001 14.5 7.70001 14.1C4.40001 14.4 1.60001 17.2 1.80001 20.2C1.80001 20.5 2.00001 20.8 2.20001 20.9C4.70001 22.7 8.30001 22 10.3 19.5C11.9 17.7 10.4 16.6 9.70001 15.3Z" fill="white"/>
<path d="M13.2 18.5C12.6 18.5 11.9 18.8 11.5 19.2C9.20003 22 10.1 25.4 13.8 28C14.4 27.5 15 27.1 15.6 26.6C17.4 25 17.8 23.1 17.3 20.7C16.7 18.3 14.9 18.5 13.2 18.5Z" fill="white"/>
<path d="M8.10001 13.3C9.00001 13.3 9.00001 13.2 10.8 11.1C11.5 10.3 11.4 9.60001 11.1 8.80001C9.70001 5.80001 5.80001 4.60001 3.00001 6.30001C2.60001 6.50001 2.40001 6.90001 2.40001 7.20001C2.10001 10.4 4.80001 13.3 8.10001 13.3Z" fill="white"/>
</svg>
