<svg width="28" height="28" viewBox="0 0 28 28" fill="none" xmlns="http://www.w3.org/2000/svg">
<path d="M27.6627 8.60536C27.1627 8.60536 26.5627 8.60536 26.0627 8.70536C24.9627 8.90536 24.0627 9.30536 23.1627 9.90536C22.8627 9.60536 22.6627 9.30536 22.3627 9.10536C22.2627 9.00536 22.1627 8.80536 22.2627 8.70536C22.3627 8.20536 22.3627 7.80536 22.3627 7.30536C22.3627 6.10536 21.8627 5.00536 20.7627 4.30536C20.6627 4.20536 20.5627 4.10536 20.4627 4.00536C20.2627 3.70536 20.0627 3.40536 19.7627 3.10536C19.0627 2.50536 18.2627 2.40536 17.4627 2.40536C17.2627 2.40536 17.2627 2.30536 17.1627 2.20536C16.9627 1.80536 16.8627 1.50536 16.5627 1.20536C15.4627 -0.294643 13.2627 -0.394643 11.8627 0.905357C11.4627 1.20536 11.1627 1.60536 10.8627 2.00536C10.7627 2.00536 10.7627 2.00536 10.6627 1.90536C9.06269 1.50536 7.46269 1.90536 6.66269 3.50536C6.66269 3.60536 6.56269 3.60536 6.46269 3.70536C6.16269 3.80536 5.76269 4.00536 5.56269 4.20536C5.26269 4.30536 5.16269 4.50536 4.96269 4.80536C3.96269 3.80536 2.66269 3.10536 1.36269 2.90536C0.862694 2.80536 0.462694 2.80536 0.0626944 3.00536C1.16269 4.10536 2.06269 5.30536 2.16269 6.10536C2.06269 6.10536 2.06269 6.10536 1.96269 6.10536C0.562694 6.60536 -0.237306 7.80536 0.0626944 9.30536C0.262694 10.0054 0.562694 10.7054 1.06269 11.3054C1.16269 11.5054 1.16269 11.6054 1.06269 11.7054C0.862694 12.2054 0.562694 12.6054 0.462694 13.1054C-0.0373056 15.0054 1.36269 16.9054 3.36269 16.9054C4.06269 16.9054 4.66269 16.7054 5.26269 16.5054C5.66269 17.2054 6.16269 17.7054 6.86269 18.0054C7.26269 18.1054 7.46269 18.3054 7.76269 18.6054C8.16269 19.2054 8.5627 19.8054 8.9627 20.4054C9.66269 21.6054 9.9627 22.9054 10.4627 24.1054C10.7627 24.9054 11.0627 25.7054 11.4627 26.5054C11.8627 27.3054 12.4627 27.7054 13.3627 27.7054C13.6627 27.7054 13.8627 27.7054 14.1627 27.7054C14.8627 27.8054 15.4627 27.6054 15.9627 27.2054C19.1627 25.3054 21.2627 22.5054 22.1627 18.9054C22.6627 16.9054 23.2627 14.9054 24.1627 13.1054C24.9627 11.4054 25.9627 10.0054 27.4627 8.90536C27.5627 8.80536 27.6627 8.80536 27.6627 8.60536C27.6627 8.70536 27.6627 8.60536 27.6627 8.60536ZM13.1627 22.8054C12.9627 22.1054 12.7627 21.4054 12.5627 20.6054C12.2627 19.6054 11.9627 18.7054 11.4627 17.9054C10.9627 17.1054 10.2627 16.6054 9.4627 16.2054C9.2627 16.1054 9.06269 16.2054 8.86269 16.2054C8.76269 16.2054 8.66269 16.3054 8.56269 16.4054C8.06269 16.6054 7.66269 16.6054 7.26269 16.2054C6.86269 15.9054 6.66269 15.6054 6.56269 15.2054C6.16269 14.4054 5.76269 14.3054 5.06269 14.7054C4.56269 15.0054 4.06269 15.2054 3.46269 15.2054C2.56269 15.2054 1.86269 14.4054 2.16269 13.5054C2.36269 13.0054 2.56269 12.6054 2.86269 12.2054C3.36269 11.6054 3.36269 11.2054 2.86269 10.7054C2.36269 10.2054 1.96269 9.60536 1.86269 8.90536C1.66269 8.30536 1.96269 7.90536 2.66269 7.80536C3.36269 7.70536 3.96269 7.80536 4.66269 8.00536C5.06269 8.10536 5.36269 8.10536 5.66269 7.80536C5.76269 7.60536 5.76269 7.40536 5.86269 7.30536C6.06269 6.80536 6.16269 6.30536 6.36269 5.80536C6.66269 5.20536 6.96269 5.20536 7.46269 5.50536C7.66269 5.60536 7.86269 5.80536 8.16269 6.00536C8.4627 6.20536 8.86269 6.30536 9.16269 6.10536C9.4627 5.90536 9.66269 5.60536 9.56269 5.30536C9.56269 5.10536 9.36269 4.90536 9.26269 4.70536C8.96269 4.40536 8.66269 4.20536 8.36269 4.00536C8.56269 3.70536 8.86269 3.50536 9.26269 3.50536C9.76269 3.50536 10.2627 3.60536 10.7627 3.80536C11.4627 4.10536 11.7627 3.90536 12.1627 3.30536C12.3627 2.90536 12.5627 2.60536 12.8627 2.30536C13.3627 1.80536 13.9627 1.60536 14.6627 1.80536C15.3627 2.00536 15.5627 2.60536 15.6627 3.20536C15.7627 3.70536 15.9627 4.10536 16.5627 4.20536C16.4627 4.30536 16.3627 4.30536 16.2627 4.40536C16.0627 4.50536 15.9627 4.50536 15.8627 4.40536C15.1627 4.00536 14.4627 3.80536 13.7627 3.70536C11.7627 3.50536 9.9627 4.90536 9.86269 6.80536C9.76269 7.40536 9.86269 8.00536 9.86269 8.50536C9.86269 8.70536 9.86269 8.80536 9.66269 9.00536C9.4627 9.20536 9.2627 9.50536 8.9627 9.70536C7.8627 8.70536 6.76269 8.50536 5.86269 9.20536C4.96269 9.90536 4.76269 11.0054 5.16269 11.9054C5.76269 13.0054 6.76269 13.4054 8.06269 13.0054C8.06269 13.1054 8.16269 13.1054 8.16269 13.2054C8.66269 14.9054 10.0627 16.0054 11.7627 16.1054C12.0627 16.1054 12.1627 16.2054 12.2627 16.5054C12.7627 17.9054 12.9627 19.3054 13.0627 20.7054C13.0627 21.3054 13.0627 21.9054 13.1627 22.5054C13.1627 22.7054 13.1627 22.8054 13.1627 22.8054ZM15.6627 24.0054C15.8627 23.1054 16.1627 22.2054 16.3627 21.2054C16.4627 20.6054 16.5627 19.9054 16.6627 19.3054C16.6627 19.2054 16.7627 19.1054 16.7627 19.1054C17.1627 18.9054 17.5627 18.8054 17.9627 18.7054C17.4627 20.5054 16.7627 22.3054 15.6627 24.0054ZM20.6627 14.4054C20.0627 14.6054 19.3627 14.6054 18.5627 14.5054C18.5627 14.6054 18.4627 14.7054 18.4627 14.8054C18.2627 15.5054 18.0627 16.2054 17.5627 16.7054C16.6627 17.7054 15.2627 17.7054 14.3627 16.7054C13.8627 16.2054 13.6627 15.5054 13.4627 14.8054C13.4627 14.7054 13.3627 14.6054 13.3627 14.5054C12.7627 14.5054 12.2627 14.5054 11.7627 14.5054C10.5627 14.4054 9.7627 13.6054 9.66269 12.4054C9.56269 11.6054 9.96269 11.0054 10.5627 10.5054C10.9627 10.2054 11.3627 9.90536 11.7627 9.60536C11.6627 9.20536 11.4627 8.80536 11.4627 8.40536C11.3627 7.90536 11.3627 7.50536 11.4627 7.00536C11.6627 5.80536 12.6627 5.20536 13.8627 5.50536C14.6627 5.70536 15.3627 6.20536 15.9627 6.60536C16.5627 6.30536 17.0627 5.90536 17.5627 5.70536C18.0627 5.40536 18.6627 5.40536 19.2627 5.50536C20.0627 5.70536 20.5627 6.40536 20.6627 7.30536C20.6627 8.00536 20.5627 8.70536 20.2627 9.30536C20.2627 9.40536 20.1627 9.50536 20.1627 9.60536C20.5627 9.90536 20.9627 10.2054 21.2627 10.5054C21.8627 11.0054 22.1627 11.6054 22.2627 12.4054C22.2627 13.4054 21.7627 14.1054 20.6627 14.4054Z" fill="white"/>
<path d="M15.9627 8.90536C14.7627 8.90536 13.7627 9.90536 13.7627 11.1054C13.7627 12.3054 14.7627 13.3054 15.9627 13.3054C17.1627 13.3054 18.1627 12.3054 18.1627 11.1054C18.1627 9.90536 17.2627 8.90536 15.9627 8.90536Z" fill="white"/>
</svg>
