<svg width="28" height="28" viewBox="0 0 28 28" fill="none" xmlns="http://www.w3.org/2000/svg">
<path d="M27.8 10.3C27.7 10.2 27.6 10.1 27.4 10.1H19.4C20.5 10.1 21.5 9.7 22.3 8.9C23.1 8.1 23.5 7.2 23.5 6C23.5 4.8 23 4 22.2 3.2C21.4 2.4 20.5 2 19.4 2C18.1 2 17.1 2.5 16.4 3.4L14.1 6.4L11.8 3.4C10.9 2.5 9.89998 2 8.59998 2C7.49998 2 6.59998 2.4 5.79998 3.2C4.99998 4 4.59998 4.9 4.59998 6.1C4.59998 7.3 4.99998 8.1 5.79998 8.9C6.59998 9.7 7.49998 10.1 8.69998 10.1H0.699976C0.499976 10.1 0.399976 10.2 0.299976 10.3C0.199976 10.4 0.0999756 10.5 0.0999756 10.7V16.5C0.0999756 16.7 0.199976 16.8 0.299976 16.9C0.399976 17 0.499976 17.1 0.699976 17.1H2.39998V24.6C2.39998 25.1 2.59998 25.5 2.89998 25.8C3.19998 26.1 3.59998 26.3 4.09998 26.3H23.8C24.3 26.3 24.7 26.1 25 25.8C25.3 25.5 25.5 25.1 25.5 24.6V17.1H27.2C27.4 17.1 27.5 17 27.6 16.9C27.7 16.8 27.8 16.7 27.8 16.5V10.7C27.9 10.5 27.9 10.4 27.8 10.3ZM18.1 4.9C18.4 4.5 18.8 4.3 19.4 4.3C19.9 4.3 20.3 4.5 20.6 4.8C20.9 5.1 21.1 5.5 21.1 6C21.1 6.5 20.9 7 20.6 7.3C20.3 7.6 19.9 7.8 19.4 7.8H15.9L18.1 4.9ZM8.59998 7.8C8.09998 7.8 7.69998 7.6 7.39998 7.3C7.09998 7 6.89998 6.5 6.89998 6.1C6.89998 5.7 7.09998 5.2 7.39998 4.9C7.69998 4.6 8.09998 4.4 8.59998 4.4C9.09998 4.4 9.49998 4.6 9.89997 5L12.2 7.9L8.59998 7.8ZM16.9 13.6V22.1V23.1C16.9 23.4 16.8 23.6 16.6 23.8C16.4 24 16.1 24 15.7 24H12.2C11.9 24 11.6 23.9 11.4 23.8C11.2 23.6 11.1 23.4 11.1 23.1V22.1V13.6V10.1H16.9V13.6Z" fill="white"/>
</svg>
