<svg width="19" height="15" viewBox="0 0 19 15" fill="none" xmlns="http://www.w3.org/2000/svg">
<path d="M12.7197 7.6L18.8037 12.8147C18.9331 12.5183 18.9999 12.1984 19 11.875V3.60129L12.7197 7.6Z" fill="#5C5269"/>
<path d="M9.92587 7.49946L18.9144 1.77888C18.7828 1.27118 18.4868 0.821333 18.0726 0.499536C17.6585 0.17774 17.1494 0.00209226 16.625 0H2.37495C1.85047 0.00209226 1.34143 0.17774 0.927257 0.499536C0.51309 0.821333 0.217092 1.27118 0.0854492 1.77888L9.07483 7.49946C9.20216 7.57994 9.34971 7.62267 9.50035 7.62267C9.65098 7.62267 9.79853 7.57994 9.92587 7.49946Z" fill="#5C5269"/>
<path d="M0 3.60129V11.875C0.000293694 12.1979 0.0671284 12.5172 0.196333 12.8131L6.28029 7.6L0 3.60129Z" fill="#5C5269"/>
<path d="M11.3319 8.48192L10.7777 8.83579C10.3961 9.07679 9.95405 9.2047 9.50274 9.2047C9.05142 9.2047 8.60934 9.07679 8.22776 8.83579L7.67359 8.48112C7.66172 8.49221 7.65697 8.50725 7.64509 8.51754L1.28088 13.969C1.61712 14.1507 1.99278 14.2472 2.37497 14.25H16.625C17.0074 14.2472 17.3833 14.1507 17.7198 13.969L11.3604 8.51754C11.3477 8.50725 11.343 8.49221 11.3319 8.48192Z" fill="#5C5269"/>
</svg>
