<svg width="28" height="25" viewBox="0 0 28 25" fill="none" xmlns="http://www.w3.org/2000/svg">
<path d="M27.4136 13.4147L17.4132 23.4151C17.0257 23.8089 16.5131 24.0027 16.0006 24.0027C15.4881 24.0027 14.9768 23.8073 14.5868 23.4167C13.8055 22.6354 13.8055 21.3697 14.5868 20.5884L21.1759 14.0022H1.99999C0.895566 14.0022 0 13.1084 0 12.0021C0 10.8958 0.895566 10.002 1.99999 10.002H21.1759L14.5881 3.41422C13.8068 2.63293 13.8068 1.36725 14.5881 0.585964C15.3693 -0.195321 16.635 -0.195321 17.4163 0.585964L27.4168 10.5864C28.1949 11.3708 28.1949 12.6334 27.4136 13.4147Z" fill="white"/>
</svg>
