<svg width="28" height="28" viewBox="0 0 28 28" fill="none" xmlns="http://www.w3.org/2000/svg">
<path d="M27.3636 14H26.7273C26.7273 9.26068 24.0274 4.90665 19.8303 2.72925C19.8608 2.62632 19.893 2.52215 19.9224 2.42924C20.1542 1.69283 20.3941 0.932173 20.0051 0.401456C19.8951 0.251687 19.6378 0 19.1512 0C18.2982 0 16.1985 0.00419478 14.9201 0.883234C14.646 0.730824 14.3353 0.636364 14 0.636364C13.6646 0.636364 13.354 0.730824 13.0799 0.883234C11.8015 0.00419478 9.70183 0 8.84881 0C8.36222 0 8.10494 0.251687 7.99494 0.401456C7.60591 0.932173 7.84579 1.69283 8.07759 2.42924C8.10703 2.52215 8.13919 2.62632 8.16972 2.72925C3.97261 4.90665 1.27273 9.26068 1.27273 14H0.636364C0.284624 14 0 14.2846 0 14.6364C0 14.9881 0.284624 15.2727 0.636364 15.2727H1.9839C2.43857 19.7736 5.25932 23.7318 9.39382 25.5962L9.16513 26.3631C9.04892 26.7521 9.12163 27.1623 9.36399 27.4879C9.60636 27.8136 9.9786 28 10.385 28H17.6168C18.0233 28 18.3955 27.8136 18.6379 27.4879C18.8802 27.1623 18.9529 26.7521 18.8367 26.3625L18.6074 25.5962C22.7413 23.7324 25.5615 19.7737 26.0161 15.2727H27.3636C27.7154 15.2727 28 14.9881 28 14.6364C28 14.2846 27.7154 14 27.3636 14ZM14.6364 2.54545C14.6364 2.89657 14.3511 3.18182 14 3.18182C13.6489 3.18182 13.3636 2.89657 13.3636 2.54545C13.3636 2.19434 13.6489 1.90909 14 1.90909C14.3511 1.90909 14.6364 2.19434 14.6364 2.54545ZM8.13873 4.20138C8.04768 4.86167 8.01467 5.5396 8.3964 5.9858C8.54368 6.15856 8.81214 6.36364 9.25462 6.36364C10.1869 6.36364 12.6635 5.0335 13.6115 4.41438C13.737 4.44041 13.8669 4.45455 14 4.45455C14.1331 4.45455 14.2629 4.44041 14.3885 4.41438C15.3365 5.0335 17.8131 6.36364 18.7454 6.36364C19.1879 6.36364 19.4563 6.15856 19.6036 5.9858C19.9853 5.5396 19.9523 4.86159 19.8613 4.20138C23.2842 6.25481 25.4545 9.972 25.4545 14H22.8201C22.5034 11.5561 20.9606 8.9543 19.1325 8.91531C18.8697 8.90971 18.6957 9.0253 18.5776 9.21733C18.4589 9.40936 18.4508 9.64924 18.5558 9.84872C19.2481 11.1597 19.6381 12.6174 19.7015 14H18.4389C18.2785 11.0432 16.2995 7.63636 14 7.63636C11.7005 7.63636 9.72148 11.0432 9.56115 14H8.29852C8.36191 12.6174 8.75194 11.1597 9.44416 9.84872C9.54918 9.64924 9.5411 9.40936 9.42241 9.21733C9.30371 9.02468 9.1266 8.90474 8.86745 8.91531C7.03938 8.9543 5.49656 11.5561 5.17985 14H2.54545C2.54545 9.972 4.71579 6.25481 8.13873 4.20138Z" fill="white"/>
</svg>
