<svg width="28" height="28" viewBox="0 0 28 28" fill="none" xmlns="http://www.w3.org/2000/svg">
<g clip-path="url(#clip0_4_631)">
<path d="M14.6 28C14.2 28 13.9 28 13.5 28C13.5 25.6 14.2 23.2 14.6 20.9C12.7 20.4 10.2 21.4 9.79997 23.5C9.59997 24.5 9.99997 25.3 10.8 25.8C11.1 26 11.5 26.2 11.9 26.4C11.8 26.7 11.7 27 11.5 27.4C9.09997 26.7 7.69997 24.3 9.19997 22C10.1 20.6 11.4 19.9 13.1 19.7C13.6 19.7 14.2 19.7 14.7 19.7C14.9 18.2 14.5 16.9 13.3 15.8C12.4 14.9 11.3 14.4 10.2 13.9H10.1C10.1 14.7 9.99997 15.6 9.99997 16.4C8.99997 15.9 7.99997 15.5 6.99997 15C7.49997 14.5 7.99997 14 8.39997 13.5C7.69997 13.2 6.99997 12.9 6.39997 12.5C4.49997 11.3 2.99997 9.8 2.39997 7.70001C1.79997 5.70001 1.89997 3.80001 3.19997 2.10001C3.99997 1.00001 5.19997 0.400005 6.59997 0.100005C8.19997 -0.199995 9.69997 5.48363e-06 11.1 0.900005C12.6 1.90001 13.4 3.30001 13.6 5.00001C13.8 6.90001 13.2 8.60001 12.2 10.1C11.7 11 11 11.8 10.4 12.6C10.9 12.8 11.4 13.1 12 13.4C12.9 13.9 13.8 14.5 14.5 15.3C15.3 16.3 15.7 17.4 15.8 18.7C15.8 18.9 15.8 19.1 15.8 19.3C15.8 19.9 15.8 19.9 16.4 20.1C17.6 20.5 18.8 20.5 19.9 20.1C21.4 19.5 22.3 18.1 22.2 16.6C22.2 16.4 22.1 16.3 21.9 16.3C20.1 15.7 18.3 14.8 17 13.4C16 12.4 15.3 11.2 15.1 9.80001C14.8 7.80001 15.5 6.20001 17 5.00001C18.1 4.10001 19.3 3.60001 20.7 3.60001C22.5 3.60001 24 4.40001 25 5.90001C26 7.40001 26.3 9.00001 26.1 10.8C25.9 12.7 25 14.3 23.8 15.8C23.7 15.9 23.7 15.9 23.6 16C23.6 16 23.6 16 23.6 16.1C24.4 16.4 25.1 16.6 25.9 16.9C25.4 17.6 24.9 18.3 24.3 19C24 18.4 23.6 17.8 23.3 17.2C23.2 17.6 23.2 18 23 18.3C22.3 20.2 20.9 21.3 18.9 21.6C17.7 21.8 16.6 21.6 15.4 21.2C15.2 23.4 14.6 25.7 14.6 28Z" fill="white"/>
</g>
<defs>
<clipPath id="clip0_4_631">
<rect width="28" height="28" fill="white"/>
</clipPath>
</defs>
</svg>
